<?xml version="1.0" standalone="no"?><!DOCTYPE svg PUBLIC "-//W3C//DTD SVG 1.1//EN" "http://www.w3.org/Graphics/SVG/1.1/DTD/svg11.dtd"><svg xmlns="http://www.w3.org/2000/svg" viewBox="0 0 650 400" version="1.1"><clipPath id="box"><rect x="0" y="0" width="650" height="400" style="fill:none;stroke:none;" /></clipPath><g clip-path="url(#box)"><rect x="0.00" y="0.00" width="650.00" height="400.00" style="fill:#FFFFFF;stroke:none;" /><path d="M0.00 400.00 L650.00 400.00 M0.00 350.00 L650.00 350.00 M0.00 300.00 L650.00 300.00 M0.00 250.00 L650.00 250.00 M0.00 200.00 L650.00 200.00 M0.00 150.00 L650.00 150.00 M0.00 100.00 L650.00 100.00 M0.00 50.00 L650.00 50.00 M0.00 0.00 L650.00 0.00 M0.00 0.00 L0.00 400.00 M54.00 0.00 L54.00 400.00 M108.00 0.00 L108.00 400.00 M162.00 0.00 L162.00 400.00 M216.00 0.00 L216.00 400.00 M270.00 0.00 L270.00 400.00 M325.00 0.00 L325.00 400.00 M379.00 0.00 L379.00 400.00 M433.00 0.00 L433.00 400.00 M487.00 0.00 L487.00 400.00 M541.00 0.00 L541.00 400.00 M595.00 0.00 L595.00 400.00 M650.00 0.00 L650.00 400.00 " style="fill:none;stroke:#D0D0D0;stroke-width:1;" /><path d="M0.00 0.00 L0.00 400.00 " style="fill:none;stroke:#000000;stroke-width:1;" /><path d="M-6.50 400.00 L6.50 400.00 M-6.50 350.00 L6.50 350.00 M-6.50 300.00 L6.50 300.00 M-6.50 250.00 L6.50 250.00 M-6.50 200.00 L6.50 200.00 M-6.50 150.00 L6.50 150.00 M-6.50 100.00 L6.50 100.00 M-6.50 50.00 L6.50 50.00 M-6.50 0.00 L6.50 0.00 " style="fill:none;stroke:#000000;stroke-width:1;" /><path d="M0.00 400.00 L650.00 400.00 " style="fill:none;stroke:#000000;stroke-width:1;" /><path d="M0.00 393.50 L0.00 406.50 M54.17 393.50 L54.17 406.50 M108.33 393.50 L108.33 406.50 M162.50 393.50 L162.50 406.50 M216.67 393.50 L216.67 406.50 M270.83 393.50 L270.83 406.50 M325.00 393.50 L325.00 406.50 M379.17 393.50 L379.17 406.50 M433.33 393.50 L433.33 406.50 M487.50 393.50 L487.50 406.50 M541.67 393.50 L541.67 406.50 M595.83 393.50 L595.83 406.50 M650.00 393.50 L650.00 406.50 " style="fill:none;stroke:#000000;stroke-width:1;" /><text x="8.125" y="352.5" text-anchor="start" style="font:10px Droid Sans,Trebuchet MS,Arial,Helvetica,sans-serif;stroke:none;fill:#000000">0.5</text><text x="8.125" y="302.5" text-anchor="start" style="font:10px Droid Sans,Trebuchet MS,Arial,Helvetica,sans-serif;stroke:none;fill:#000000">1</text><text x="8.125" y="252.5" text-anchor="start" style="font:10px Droid Sans,Trebuchet MS,Arial,Helvetica,sans-serif;stroke:none;fill:#000000">1.5</text><text x="8.125" y="202.5" text-anchor="start" style="font:10px Droid Sans,Trebuchet MS,Arial,Helvetica,sans-serif;stroke:none;fill:#000000">2</text><text x="8.125" y="152.5" text-anchor="start" style="font:10px Droid Sans,Trebuchet MS,Arial,Helvetica,sans-serif;stroke:none;fill:#000000">2.5</text><text x="8.125" y="102.5" text-anchor="start" style="font:10px Droid Sans,Trebuchet MS,Arial,Helvetica,sans-serif;stroke:none;fill:#000000">3</text><text x="8.125" y="52.5" text-anchor="start" style="font:10px Droid Sans,Trebuchet MS,Arial,Helvetica,sans-serif;stroke:none;fill:#000000">3.5</text><text x="54.166666666666664" y="389.625" text-anchor="middle" style="font:10px Droid Sans,Trebuchet MS,Arial,Helvetica,sans-serif;stroke:none;fill:#000000">0.5</text><text x="108.33333333333333" y="389.625" text-anchor="middle" style="font:10px Droid Sans,Trebuchet MS,Arial,Helvetica,sans-serif;stroke:none;fill:#000000">1</text><text x="162.5" y="389.625" text-anchor="middle" style="font:10px Droid Sans,Trebuchet MS,Arial,Helvetica,sans-serif;stroke:none;fill:#000000">1.5</text><text x="216.66666666666666" y="389.625" text-anchor="middle" style="font:10px Droid Sans,Trebuchet MS,Arial,Helvetica,sans-serif;stroke:none;fill:#000000">2</text><text x="270.83333333333337" y="389.625" text-anchor="middle" style="font:10px Droid Sans,Trebuchet MS,Arial,Helvetica,sans-serif;stroke:none;fill:#000000">2.5</text><text x="325" y="389.625" text-anchor="middle" style="font:10px Droid Sans,Trebuchet MS,Arial,Helvetica,sans-serif;stroke:none;fill:#000000">3</text><text x="379.1666666666667" y="389.625" text-anchor="middle" style="font:10px Droid Sans,Trebuchet MS,Arial,Helvetica,sans-serif;stroke:none;fill:#000000">3.5</text><text x="433.3333333333333" y="389.625" text-anchor="middle" style="font:10px Droid Sans,Trebuchet MS,Arial,Helvetica,sans-serif;stroke:none;fill:#000000">4</text><text x="487.5" y="389.625" text-anchor="middle" style="font:10px Droid Sans,Trebuchet MS,Arial,Helvetica,sans-serif;stroke:none;fill:#000000">4.5</text><text x="541.6666666666667" y="389.625" text-anchor="middle" style="font:10px Droid Sans,Trebuchet MS,Arial,Helvetica,sans-serif;stroke:none;fill:#000000">5</text><text x="595.8333333333333" y="389.625" text-anchor="middle" style="font:10px Droid Sans,Trebuchet MS,Arial,Helvetica,sans-serif;stroke:none;fill:#000000">5.5</text><path d="M-0.00 400.00 L-0.00 400.00 L1.08 399.00 L2.17 398.00 L3.25 397.00 L4.33 396.00 L5.42 395.00 L6.50 394.00 L7.58 393.00 L8.67 392.00 L9.75 391.00 L10.83 390.00 L11.92 389.00 L13.00 388.00 L14.08 387.00 L15.17 386.00 L16.25 385.00 L17.33 384.00 L18.42 383.00 L19.50 382.00 L20.58 381.00 L21.67 380.00 L22.75 379.00 L23.83 378.00 L24.92 377.00 L26.00 376.00 L27.08 375.00 L28.17 374.00 L29.25 373.00 L30.33 372.00 L31.42 371.00 L32.50 370.00 L33.58 369.00 L34.67 368.00 L35.75 367.00 L36.83 366.00 L37.92 365.00 L39.00 364.00 L40.08 363.00 L41.17 362.00 L42.25 361.00 L43.33 360.00 L44.42 359.00 L45.50 358.00 L46.58 357.00 L47.67 356.00 L48.75 355.00 L49.83 354.00 L50.92 353.00 L52.00 352.00 L53.08 351.00 L54.17 350.00 L55.25 349.00 L56.33 348.00 L57.42 347.00 L58.50 346.00 L59.58 345.00 L60.67 344.00 L61.75 343.00 L62.83 342.00 L63.92 341.00 L65.00 340.00 L66.08 339.00 L67.17 338.00 L68.25 337.00 L69.33 336.00 L70.42 335.00 L71.50 334.00 L72.58 333.00 L73.67 332.00 L74.75 331.00 L75.83 330.00 L76.92 329.00 L78.00 328.00 L79.08 327.00 L80.17 326.00 L81.25 325.00 L82.33 324.00 L83.42 323.00 L84.50 322.00 L85.58 321.00 L86.67 320.00 L87.75 319.00 L88.83 318.00 L89.92 317.00 L91.00 316.00 L92.08 315.00 L93.17 314.00 L94.25 313.00 L95.33 312.00 L96.42 311.00 L97.50 310.00 L98.58 309.00 L99.67 308.00 L100.75 307.00 L101.83 306.00 L102.92 305.00 L104.00 304.00 L105.08 303.00 L106.17 302.00 L107.25 301.00 L108.33 300.00 L109.42 299.00 L110.50 298.00 L111.58 297.00 L112.67 296.00 L113.75 295.00 L114.83 294.00 L115.92 293.00 L117.00 292.00 L118.08 291.00 L119.17 290.00 L120.25 289.00 L121.33 288.00 L122.42 287.00 L123.50 286.00 L124.58 285.00 L125.67 284.00 L126.75 283.00 L127.83 282.00 L128.92 281.00 L130.00 280.00 L131.08 279.00 L132.17 278.00 L133.25 277.00 L134.33 276.00 L135.42 275.00 L136.50 274.00 L137.58 273.00 L138.67 272.00 L139.75 271.00 L140.83 270.00 L141.92 269.00 L143.00 268.00 L144.08 267.00 L145.17 266.00 L146.25 265.00 L147.33 264.00 L148.42 263.00 L149.50 262.00 L150.58 261.00 L151.67 260.00 L152.75 259.00 L153.83 258.00 L154.92 257.00 L156.00 256.00 L157.08 255.00 L158.17 254.00 L159.25 253.00 L160.33 252.00 L161.42 251.00 L162.50 250.00 L163.58 249.00 L164.67 248.00 L165.75 247.00 L166.83 246.00 L167.92 245.00 L169.00 244.00 L170.08 243.00 L171.17 242.00 L172.25 241.00 L173.33 240.00 L174.42 239.00 L175.50 238.00 L176.58 237.00 L177.67 236.00 L178.75 235.00 L179.83 234.00 L180.92 233.00 L182.00 232.00 L183.08 231.00 L184.17 230.00 L185.25 229.00 L186.33 228.00 L187.42 227.00 L188.50 226.00 L189.58 225.00 L190.67 224.00 L191.75 223.00 L192.83 222.00 L193.92 221.00 L195.00 220.00 L196.08 219.00 L197.17 218.00 L198.25 217.00 L199.33 216.00 L200.42 215.00 L201.50 214.00 L202.58 213.00 L203.67 212.00 L204.75 211.00 L205.83 210.00 L206.92 209.00 L208.00 208.00 L209.08 207.00 L210.17 206.00 L211.25 205.00 L212.33 204.00 L213.42 203.00 L214.50 202.00 L215.58 201.00 L216.67 200.00 L217.75 199.00 L218.83 198.00 L219.92 197.00 L221.00 196.00 L222.08 195.00 L223.17 194.00 L224.25 193.00 L225.33 192.00 L226.42 191.00 L227.50 190.00 L228.58 189.00 L229.67 188.00 L230.75 187.00 L231.83 186.00 L232.92 185.00 L234.00 184.00 L235.08 183.00 L236.17 182.00 L237.25 181.00 L238.33 180.00 L239.42 179.00 L240.50 178.00 L241.58 177.00 L242.67 176.00 L243.75 175.00 L244.83 174.00 L245.92 173.00 L247.00 172.00 L248.08 171.00 L249.17 170.00 L250.25 169.00 L251.33 168.00 L252.42 167.00 L253.50 166.00 L254.58 165.00 L255.67 164.00 L256.75 163.00 L257.83 162.00 L258.92 161.00 L260.00 160.00 L261.08 159.00 L262.17 158.00 L263.25 157.00 L264.33 156.00 L265.42 155.00 L266.50 154.00 L267.58 153.00 L268.67 152.00 L269.75 151.00 L270.83 150.00 L271.92 149.00 L273.00 148.00 L274.08 147.00 L275.17 146.00 L276.25 145.00 L277.33 144.00 L278.42 143.00 L279.50 142.00 L280.58 141.00 L281.67 140.00 L282.75 139.00 L283.83 138.00 L284.92 137.00 L286.00 136.00 L287.08 135.00 L288.17 134.00 L289.25 133.00 L290.33 132.00 L291.42 131.00 L292.50 130.00 L293.58 129.00 L294.67 128.00 L295.75 127.00 L296.83 126.00 L297.92 125.00 L299.00 124.00 L300.08 123.00 L301.17 122.00 L302.25 121.00 L303.33 120.00 L304.42 119.00 L305.50 118.00 L306.58 117.00 L307.67 116.00 L308.75 115.00 L309.83 114.00 L310.92 113.00 L312.00 112.00 L313.08 111.00 L314.17 110.00 L315.25 109.00 L316.33 108.00 L317.42 107.00 L318.50 106.00 L319.58 105.00 L320.67 104.00 L321.75 103.00 L322.83 102.00 L323.92 101.00 L325.00 100.00 L326.08 99.00 L327.17 98.00 L328.25 97.00 L329.33 96.00 L330.42 95.00 L331.50 94.00 L332.58 93.00 L333.67 92.00 L334.75 91.00 L335.83 90.00 L336.92 89.00 L338.00 88.00 L339.08 87.00 L340.17 86.00 L341.25 85.00 L342.33 84.00 L343.42 83.00 L344.50 82.00 L345.58 81.00 L346.67 80.00 L347.75 79.00 L348.83 78.00 L349.92 77.00 L351.00 76.00 L352.08 75.00 L353.17 74.00 L354.25 73.00 L355.33 72.00 L356.42 71.00 L357.50 70.00 L358.58 69.00 L359.67 68.00 L360.75 67.00 L361.83 66.00 L362.92 65.00 L364.00 64.00 L365.08 63.00 L366.17 62.00 L367.25 61.00 L368.33 60.00 L369.42 59.00 L370.50 58.00 L371.58 57.00 L372.67 56.00 L373.75 55.00 L374.83 54.00 L375.92 53.00 L377.00 52.00 L378.08 51.00 L379.17 50.00 L380.25 49.00 L381.33 48.00 L382.42 47.00 L383.50 46.00 L384.58 45.00 L385.67 44.00 L386.75 43.00 L387.83 42.00 L388.92 41.00 L390.00 40.00 L391.08 39.00 L392.17 38.00 L393.25 37.00 L394.33 36.00 L395.42 35.00 L396.50 34.00 L397.58 33.00 L398.67 32.00 L399.75 31.00 L400.83 30.00 L401.92 29.00 L403.00 28.00 L404.08 27.00 L405.17 26.00 L406.25 25.00 L407.33 24.00 L408.42 23.00 L409.50 22.00 L410.58 21.00 L411.67 20.00 L412.75 19.00 L413.83 18.00 L414.92 17.00 L416.00 16.00 L417.08 15.00 L418.17 14.00 L419.25 13.00 L420.33 12.00 L421.42 11.00 L422.50 10.00 L423.58 9.00 L424.67 8.00 L425.75 7.00 L426.83 6.00 L427.92 5.00 L429.00 4.00 L430.08 3.00 L431.17 2.00 L432.25 1.00 L433.33 -0.00 " style="fill:none;stroke:#000000;stroke-width:1;" /><path d="M0.00 399.70 L0.00 399.51 L0.01 398.98 L0.03 398.40 L0.06 397.72 L0.10 396.99 L0.16 396.21 L0.23 395.40 L0.32 394.57 L0.43 393.71 L0.56 392.84 L0.70 391.96 L0.87 391.06 L1.05 390.16 L1.25 389.24 L1.48 388.33 L1.72 387.40 L1.98 386.47 L2.27 385.54 L2.57 384.60 L2.89 383.66 L3.24 382.72 L3.60 381.77 L3.98 380.82 L4.39 379.87 L4.82 378.92 L5.26 377.96 L5.73 377.00 L6.22 376.04 L6.73 375.08 L7.26 374.12 L7.81 373.16 L8.38 372.19 L8.97 371.23 L9.58 370.26 L10.22 369.29 L10.87 368.32 L11.55 367.35 L12.24 366.38 L12.96 365.41 L13.70 364.44 L14.46 363.47 L15.24 362.49 L16.04 361.52 L16.87 360.54 L17.71 359.57 L18.58 358.59 L19.46 357.61 L20.37 356.64 L21.30 355.66 L22.25 354.68 L23.22 353.70 L24.21 352.72 L25.23 351.74 L26.26 350.76 L27.32 349.78 L28.40 348.80 L29.49 347.82 L30.61 346.84 L31.76 345.86 L32.92 344.88 L34.10 343.89 L35.31 342.91 L36.53 341.93 L37.78 340.95 L39.05 339.96 L40.34 338.98 L41.65 337.99 L42.98 337.01 L44.34 336.03 L45.71 335.04 L47.11 334.06 L48.53 333.07 L49.97 332.08 L51.43 331.10 L52.91 330.11 L54.41 329.13 L55.94 328.14 L57.49 327.15 L59.05 326.17 L60.64 325.18 L62.25 324.19 L63.88 323.21 L65.54 322.22 L67.21 321.23 L68.91 320.25 L70.63 319.26 L72.36 318.27 L74.12 317.28 L75.91 316.29 L77.71 315.31 L79.53 314.32 L81.38 313.33 L83.25 312.34 L85.13 311.35 L87.04 310.36 L88.98 309.37 L90.93 308.38 L92.90 307.39 L94.90 306.41 L96.90 305.42 L98.90 304.45 L100.90 303.49 L102.90 302.54 L104.90 301.60 L106.90 300.66 L108.90 299.74 L110.90 298.82 L112.90 297.91 L114.90 297.01 L116.90 296.12 L118.90 295.24 L120.90 294.36 L122.90 293.49 L124.90 292.63 L126.90 291.77 L128.90 290.92 L130.90 290.08 L132.90 289.24 L134.90 288.41 L136.90 287.59 L138.90 286.77 L140.90 285.96 L142.90 285.15 L144.90 284.35 L146.90 283.55 L148.90 282.76 L150.90 281.98 L152.90 281.20 L154.90 280.42 L156.90 279.65 L158.90 278.89 L160.90 278.13 L162.90 277.38 L164.90 276.62 L166.90 275.88 L168.90 275.14 L170.90 274.40 L172.90 273.67 L174.90 272.94 L176.90 272.21 L178.90 271.49 L180.90 270.78 L182.90 270.07 L184.90 269.36 L186.90 268.65 L188.90 267.95 L190.90 267.25 L192.90 266.56 L194.90 265.87 L196.90 265.18 L198.90 264.50 L200.90 263.82 L202.90 263.15 L204.90 262.47 L206.90 261.80 L208.90 261.14 L210.90 260.47 L212.90 259.81 L214.90 259.16 L216.90 258.50 L218.90 257.85 L220.90 257.20 L222.90 256.56 L224.90 255.92 L226.90 255.28 L228.90 254.64 L230.90 254.01 L232.90 253.38 L234.90 252.75 L236.90 252.12 L238.90 251.50 L240.90 250.88 L242.90 250.26 L244.90 249.65 L246.90 249.03 L248.90 248.42 L250.90 247.82 L252.90 247.21 L254.90 246.61 L256.90 246.01 L258.90 245.41 L260.90 244.81 L262.90 244.22 L264.90 243.63 L266.90 243.04 L268.90 242.45 L270.90 241.87 L272.90 241.28 L274.90 240.70 L276.90 240.13 L278.90 239.55 L280.90 238.97 L282.90 238.40 L284.90 237.83 L286.90 237.26 L288.90 236.70 L290.90 236.13 L292.90 235.57 L294.90 235.01 L296.90 234.45 L298.90 233.90 L300.90 233.34 L302.90 232.79 L304.90 232.24 L306.90 231.69 L308.90 231.14 L310.90 230.59 L312.90 230.05 L314.90 229.51 L316.90 228.97 L318.90 228.43 L320.90 227.89 L322.90 227.36 L324.90 226.82 L326.90 226.29 L328.90 225.76 L330.90 225.23 L332.90 224.70 L334.90 224.18 L336.90 223.65 L338.90 223.13 L340.90 222.61 L342.90 222.09 L344.90 221.57 L346.90 221.05 L348.90 220.54 L350.90 220.03 L352.90 219.51 L354.90 219.00 L356.90 218.49 L358.90 217.99 L360.90 217.48 L362.90 216.97 L364.90 216.47 L366.90 215.97 L368.90 215.47 L370.90 214.97 L372.90 214.47 L374.90 213.97 L376.90 213.48 L378.90 212.98 L380.90 212.49 L382.90 212.00 L384.90 211.51 L386.90 211.02 L388.90 210.53 L390.90 210.04 L392.90 209.56 L394.90 209.08 L396.90 208.59 L398.90 208.11 L400.90 207.63 L402.90 207.15 L404.90 206.67 L406.90 206.20 L408.90 205.72 L410.90 205.25 L412.90 204.77 L414.90 204.30 L416.90 203.83 L418.90 203.36 L420.90 202.89 L422.90 202.42 L424.90 201.96 L426.90 201.49 L428.90 201.03 L430.90 200.56 L432.90 200.10 L434.90 199.64 L436.90 199.18 L438.90 198.72 L440.90 198.26 L442.90 197.80 L444.90 197.35 L446.90 196.89 L448.90 196.44 L450.90 195.99 L452.90 195.53 L454.90 195.08 L456.90 194.63 L458.90 194.18 L460.90 193.74 L462.90 193.29 L464.90 192.84 L466.90 192.40 L468.90 191.95 L470.90 191.51 L472.90 191.07 L474.90 190.63 L476.90 190.19 L478.90 189.75 L480.90 189.31 L482.90 188.87 L484.90 188.43 L486.90 188.00 L488.90 187.56 L490.90 187.13 L492.90 186.70 L494.90 186.26 L496.90 185.83 L498.90 185.40 L500.90 184.97 L502.90 184.54 L504.90 184.12 L506.90 183.69 L508.90 183.26 L510.90 182.84 L512.90 182.41 L514.90 181.99 L516.90 181.57 L518.90 181.14 L520.90 180.72 L522.90 180.30 L524.90 179.88 L526.90 179.46 L528.90 179.04 L530.90 178.63 L532.90 178.21 L534.90 177.79 L536.90 177.38 L538.90 176.97 L540.90 176.55 L542.90 176.14 L544.90 175.73 L546.90 175.32 L548.90 174.91 L550.90 174.50 L552.90 174.09 L554.90 173.68 L556.90 173.27 L558.90 172.86 L560.90 172.46 L562.90 172.05 L564.90 171.65 L566.90 171.24 L568.90 170.84 L570.90 170.44 L572.90 170.04 L574.90 169.64 L576.90 169.24 L578.90 168.84 L580.90 168.44 L582.90 168.04 L584.90 167.64 L586.90 167.24 L588.90 166.85 L590.90 166.45 L592.90 166.06 L594.90 165.66 L596.90 165.27 L598.90 164.88 L600.90 164.48 L602.90 164.09 L604.90 163.70 L606.90 163.31 L608.90 162.92 L610.90 162.53 L612.90 162.14 L614.90 161.76 L616.90 161.37 L618.90 160.98 L620.90 160.60 L622.90 160.21 L624.90 159.83 L626.90 159.44 L628.90 159.06 L630.90 158.68 L632.90 158.29 L634.90 157.91 L636.90 157.53 L638.90 157.15 L640.90 156.77 L642.90 156.39 L644.90 156.01 L646.90 155.64 L648.90 155.26 " style="fill:none;stroke:#000000;stroke-width:1;" /></g></svg>