<?xml version="1.0" encoding="utf-8" standalone="no"?>
<!DOCTYPE svg PUBLIC "-//W3C//DTD SVG 1.1//EN"
  "http://www.w3.org/Graphics/SVG/1.1/DTD/svg11.dtd">
<svg xmlns:xlink="http://www.w3.org/1999/xlink" width="397.6075pt" height="297.190125pt" viewBox="0 0 397.6075 297.190125" xmlns="http://www.w3.org/2000/svg" version="1.1">
 <metadata>
  <rdf:RDF xmlns:dc="http://purl.org/dc/elements/1.1/" xmlns:cc="http://creativecommons.org/ns#" xmlns:rdf="http://www.w3.org/1999/02/22-rdf-syntax-ns#">
   <cc:Work>
    <dc:type rdf:resource="http://purl.org/dc/dcmitype/StillImage"/>
    <dc:date>2025-11-27T14:34:15.703079</dc:date>
    <dc:format>image/svg+xml</dc:format>
    <dc:creator>
     <cc:Agent>
      <dc:title>Matplotlib v3.10.7, https://matplotlib.org/</dc:title>
     </cc:Agent>
    </dc:creator>
   </cc:Work>
  </rdf:RDF>
 </metadata>
 <defs>
  <style type="text/css">*{stroke-linejoin: round; stroke-linecap: butt}</style>
 </defs>
 <g id="figure_1">
  <g id="patch_1">
   <path d="M 0 297.190125 
L 397.6075 297.190125 
L 397.6075 0 
L 0 0 
z
" style="fill: #ffffff"/>
  </g>
  <g id="axes_1">
   <g id="patch_2">
    <path d="M 33.2875 273.312 
L 390.4075 273.312 
L 390.4075 7.2 
L 33.2875 7.2 
z
" style="fill: #ffffff"/>
   </g>
   <g id="matplotlib.axis_1">
    <g id="xtick_1">
     <g id="line2d_1">
      <defs>
       <path id="me515e733b3" d="M 0 0 
L 0 3.5 
" style="stroke: #000000; stroke-width: 0.8"/>
      </defs>
      <g>
       <use xlink:href="#me515e733b3" x="49.520227" y="273.312" style="stroke: #000000; stroke-width: 0.8"/>
      </g>
     </g>
     <g id="text_1">
      <!-- 0 -->
      <g transform="translate(46.338977 287.910437) scale(0.1 -0.1)">
       <defs>
        <path id="DejaVuSans-30" d="M 2034 4250 
Q 1547 4250 1301 3770 
Q 1056 3291 1056 2328 
Q 1056 1369 1301 889 
Q 1547 409 2034 409 
Q 2525 409 2770 889 
Q 3016 1369 3016 2328 
Q 3016 3291 2770 3770 
Q 2525 4250 2034 4250 
z
M 2034 4750 
Q 2819 4750 3233 4129 
Q 3647 3509 3647 2328 
Q 3647 1150 3233 529 
Q 2819 -91 2034 -91 
Q 1250 -91 836 529 
Q 422 1150 422 2328 
Q 422 3509 836 4129 
Q 1250 4750 2034 4750 
z
" transform="scale(0.015625)"/>
       </defs>
       <use xlink:href="#DejaVuSans-30"/>
      </g>
     </g>
    </g>
    <g id="xtick_2">
     <g id="line2d_2">
      <g>
       <use xlink:href="#me515e733b3" x="114.451136" y="273.312" style="stroke: #000000; stroke-width: 0.8"/>
      </g>
     </g>
     <g id="text_2">
      <!-- 2 -->
      <g transform="translate(111.269886 287.910437) scale(0.1 -0.1)">
       <defs>
        <path id="DejaVuSans-32" d="M 1228 531 
L 3431 531 
L 3431 0 
L 469 0 
L 469 531 
Q 828 903 1448 1529 
Q 2069 2156 2228 2338 
Q 2531 2678 2651 2914 
Q 2772 3150 2772 3378 
Q 2772 3750 2511 3984 
Q 2250 4219 1831 4219 
Q 1534 4219 1204 4116 
Q 875 4013 500 3803 
L 500 4441 
Q 881 4594 1212 4672 
Q 1544 4750 1819 4750 
Q 2544 4750 2975 4387 
Q 3406 4025 3406 3419 
Q 3406 3131 3298 2873 
Q 3191 2616 2906 2266 
Q 2828 2175 2409 1742 
Q 1991 1309 1228 531 
z
" transform="scale(0.015625)"/>
       </defs>
       <use xlink:href="#DejaVuSans-32"/>
      </g>
     </g>
    </g>
    <g id="xtick_3">
     <g id="line2d_3">
      <g>
       <use xlink:href="#me515e733b3" x="179.382045" y="273.312" style="stroke: #000000; stroke-width: 0.8"/>
      </g>
     </g>
     <g id="text_3">
      <!-- 4 -->
      <g transform="translate(176.200795 287.910437) scale(0.1 -0.1)">
       <defs>
        <path id="DejaVuSans-34" d="M 2419 4116 
L 825 1625 
L 2419 1625 
L 2419 4116 
z
M 2253 4666 
L 3047 4666 
L 3047 1625 
L 3713 1625 
L 3713 1100 
L 3047 1100 
L 3047 0 
L 2419 0 
L 2419 1100 
L 313 1100 
L 313 1709 
L 2253 4666 
z
" transform="scale(0.015625)"/>
       </defs>
       <use xlink:href="#DejaVuSans-34"/>
      </g>
     </g>
    </g>
    <g id="xtick_4">
     <g id="line2d_4">
      <g>
       <use xlink:href="#me515e733b3" x="244.312955" y="273.312" style="stroke: #000000; stroke-width: 0.8"/>
      </g>
     </g>
     <g id="text_4">
      <!-- 6 -->
      <g transform="translate(241.131705 287.910437) scale(0.1 -0.1)">
       <defs>
        <path id="DejaVuSans-36" d="M 2113 2584 
Q 1688 2584 1439 2293 
Q 1191 2003 1191 1497 
Q 1191 994 1439 701 
Q 1688 409 2113 409 
Q 2538 409 2786 701 
Q 3034 994 3034 1497 
Q 3034 2003 2786 2293 
Q 2538 2584 2113 2584 
z
M 3366 4563 
L 3366 3988 
Q 3128 4100 2886 4159 
Q 2644 4219 2406 4219 
Q 1781 4219 1451 3797 
Q 1122 3375 1075 2522 
Q 1259 2794 1537 2939 
Q 1816 3084 2150 3084 
Q 2853 3084 3261 2657 
Q 3669 2231 3669 1497 
Q 3669 778 3244 343 
Q 2819 -91 2113 -91 
Q 1303 -91 875 529 
Q 447 1150 447 2328 
Q 447 3434 972 4092 
Q 1497 4750 2381 4750 
Q 2619 4750 2861 4703 
Q 3103 4656 3366 4563 
z
" transform="scale(0.015625)"/>
       </defs>
       <use xlink:href="#DejaVuSans-36"/>
      </g>
     </g>
    </g>
    <g id="xtick_5">
     <g id="line2d_5">
      <g>
       <use xlink:href="#me515e733b3" x="309.243864" y="273.312" style="stroke: #000000; stroke-width: 0.8"/>
      </g>
     </g>
     <g id="text_5">
      <!-- 8 -->
      <g transform="translate(306.062614 287.910437) scale(0.1 -0.1)">
       <defs>
        <path id="DejaVuSans-38" d="M 2034 2216 
Q 1584 2216 1326 1975 
Q 1069 1734 1069 1313 
Q 1069 891 1326 650 
Q 1584 409 2034 409 
Q 2484 409 2743 651 
Q 3003 894 3003 1313 
Q 3003 1734 2745 1975 
Q 2488 2216 2034 2216 
z
M 1403 2484 
Q 997 2584 770 2862 
Q 544 3141 544 3541 
Q 544 4100 942 4425 
Q 1341 4750 2034 4750 
Q 2731 4750 3128 4425 
Q 3525 4100 3525 3541 
Q 3525 3141 3298 2862 
Q 3072 2584 2669 2484 
Q 3125 2378 3379 2068 
Q 3634 1759 3634 1313 
Q 3634 634 3220 271 
Q 2806 -91 2034 -91 
Q 1263 -91 848 271 
Q 434 634 434 1313 
Q 434 1759 690 2068 
Q 947 2378 1403 2484 
z
M 1172 3481 
Q 1172 3119 1398 2916 
Q 1625 2713 2034 2713 
Q 2441 2713 2670 2916 
Q 2900 3119 2900 3481 
Q 2900 3844 2670 4047 
Q 2441 4250 2034 4250 
Q 1625 4250 1398 4047 
Q 1172 3844 1172 3481 
z
" transform="scale(0.015625)"/>
       </defs>
       <use xlink:href="#DejaVuSans-38"/>
      </g>
     </g>
    </g>
    <g id="xtick_6">
     <g id="line2d_6">
      <g>
       <use xlink:href="#me515e733b3" x="374.174773" y="273.312" style="stroke: #000000; stroke-width: 0.8"/>
      </g>
     </g>
     <g id="text_6">
      <!-- 10 -->
      <g transform="translate(367.812273 287.910437) scale(0.1 -0.1)">
       <defs>
        <path id="DejaVuSans-31" d="M 794 531 
L 1825 531 
L 1825 4091 
L 703 3866 
L 703 4441 
L 1819 4666 
L 2450 4666 
L 2450 531 
L 3481 531 
L 3481 0 
L 794 0 
L 794 531 
z
" transform="scale(0.015625)"/>
       </defs>
       <use xlink:href="#DejaVuSans-31"/>
       <use xlink:href="#DejaVuSans-30" transform="translate(63.623047 0)"/>
      </g>
     </g>
    </g>
   </g>
   <g id="matplotlib.axis_2">
    <g id="ytick_1">
     <g id="line2d_7">
      <defs>
       <path id="m1d9df784cc" d="M 0 0 
L -3.5 0 
" style="stroke: #000000; stroke-width: 0.8"/>
      </defs>
      <g>
       <use xlink:href="#m1d9df784cc" x="33.2875" y="261.216" style="stroke: #000000; stroke-width: 0.8"/>
      </g>
     </g>
     <g id="text_7">
      <!-- 0 -->
      <g transform="translate(19.925 265.015219) scale(0.1 -0.1)">
       <use xlink:href="#DejaVuSans-30"/>
      </g>
     </g>
    </g>
    <g id="ytick_2">
     <g id="line2d_8">
      <g>
       <use xlink:href="#m1d9df784cc" x="33.2875" y="212.832" style="stroke: #000000; stroke-width: 0.8"/>
      </g>
     </g>
     <g id="text_8">
      <!-- 20 -->
      <g transform="translate(13.5625 216.631219) scale(0.1 -0.1)">
       <use xlink:href="#DejaVuSans-32"/>
       <use xlink:href="#DejaVuSans-30" transform="translate(63.623047 0)"/>
      </g>
     </g>
    </g>
    <g id="ytick_3">
     <g id="line2d_9">
      <g>
       <use xlink:href="#m1d9df784cc" x="33.2875" y="164.448" style="stroke: #000000; stroke-width: 0.8"/>
      </g>
     </g>
     <g id="text_9">
      <!-- 40 -->
      <g transform="translate(13.5625 168.247219) scale(0.1 -0.1)">
       <use xlink:href="#DejaVuSans-34"/>
       <use xlink:href="#DejaVuSans-30" transform="translate(63.623047 0)"/>
      </g>
     </g>
    </g>
    <g id="ytick_4">
     <g id="line2d_10">
      <g>
       <use xlink:href="#m1d9df784cc" x="33.2875" y="116.064" style="stroke: #000000; stroke-width: 0.8"/>
      </g>
     </g>
     <g id="text_10">
      <!-- 60 -->
      <g transform="translate(13.5625 119.863219) scale(0.1 -0.1)">
       <use xlink:href="#DejaVuSans-36"/>
       <use xlink:href="#DejaVuSans-30" transform="translate(63.623047 0)"/>
      </g>
     </g>
    </g>
    <g id="ytick_5">
     <g id="line2d_11">
      <g>
       <use xlink:href="#m1d9df784cc" x="33.2875" y="67.68" style="stroke: #000000; stroke-width: 0.8"/>
      </g>
     </g>
     <g id="text_11">
      <!-- 80 -->
      <g transform="translate(13.5625 71.479219) scale(0.1 -0.1)">
       <use xlink:href="#DejaVuSans-38"/>
       <use xlink:href="#DejaVuSans-30" transform="translate(63.623047 0)"/>
      </g>
     </g>
    </g>
    <g id="ytick_6">
     <g id="line2d_12">
      <g>
       <use xlink:href="#m1d9df784cc" x="33.2875" y="19.296" style="stroke: #000000; stroke-width: 0.8"/>
      </g>
     </g>
     <g id="text_12">
      <!-- 100 -->
      <g transform="translate(7.2 23.095219) scale(0.1 -0.1)">
       <use xlink:href="#DejaVuSans-31"/>
       <use xlink:href="#DejaVuSans-30" transform="translate(63.623047 0)"/>
       <use xlink:href="#DejaVuSans-30" transform="translate(127.246094 0)"/>
      </g>
     </g>
    </g>
   </g>
   <g id="line2d_13">
    <path d="M 49.520227 261.216 
L 52.799566 260.971636 
L 56.078905 260.727273 
L 59.358244 260.482909 
L 62.637583 260.238545 
L 65.916921 259.994182 
L 69.19626 259.749818 
L 72.475599 259.505455 
L 75.754938 259.261091 
L 79.034277 259.016727 
L 82.313616 258.772364 
L 85.592955 258.528 
L 88.872293 258.283636 
L 92.151632 258.039273 
L 95.430971 257.794909 
L 98.71031 257.550545 
L 101.989649 257.306182 
L 105.268988 257.061818 
L 108.548326 256.817455 
L 111.827665 256.573091 
L 115.107004 256.328727 
L 118.386343 256.084364 
L 121.665682 255.84 
L 124.945021 255.595636 
L 128.22436 255.351273 
L 131.503698 255.106909 
L 134.783037 254.862545 
L 138.062376 254.618182 
L 141.341715 254.373818 
L 144.621054 254.129455 
L 147.900393 253.885091 
L 151.179731 253.640727 
L 154.45907 253.396364 
L 157.738409 253.152 
L 161.017748 252.907636 
L 164.297087 252.663273 
L 167.576426 252.418909 
L 170.855764 252.174545 
L 174.135103 251.930182 
L 177.414442 251.685818 
L 180.693781 251.441455 
L 183.97312 251.197091 
L 187.252459 250.952727 
L 190.531798 250.708364 
L 193.811136 250.464 
L 197.090475 250.219636 
L 200.369814 249.975273 
L 203.649153 249.730909 
L 206.928492 249.486545 
L 210.207831 249.242182 
L 213.487169 248.997818 
L 216.766508 248.753455 
L 220.045847 248.509091 
L 223.325186 248.264727 
L 226.604525 248.020364 
L 229.883864 247.776 
L 233.163202 247.531636 
L 236.442541 247.287273 
L 239.72188 247.042909 
L 243.001219 246.798545 
L 246.280558 246.554182 
L 249.559897 246.309818 
L 252.839236 246.065455 
L 256.118574 245.821091 
L 259.397913 245.576727 
L 262.677252 245.332364 
L 265.956591 245.088 
L 269.23593 244.843636 
L 272.515269 244.599273 
L 275.794607 244.354909 
L 279.073946 244.110545 
L 282.353285 243.866182 
L 285.632624 243.621818 
L 288.911963 243.377455 
L 292.191302 243.133091 
L 295.47064 242.888727 
L 298.749979 242.644364 
L 302.029318 242.4 
L 305.308657 242.155636 
L 308.587996 241.911273 
L 311.867335 241.666909 
L 315.146674 241.422545 
L 318.426012 241.178182 
L 321.705351 240.933818 
L 324.98469 240.689455 
L 328.264029 240.445091 
L 331.543368 240.200727 
L 334.822707 239.956364 
L 338.102045 239.712 
L 341.381384 239.467636 
L 344.660723 239.223273 
L 347.940062 238.978909 
L 351.219401 238.734545 
L 354.49874 238.490182 
L 357.778079 238.245818 
L 361.057417 238.001455 
L 364.336756 237.757091 
L 367.616095 237.512727 
L 370.895434 237.268364 
L 374.174773 237.024 
" clip-path="url(#p22dc22246d)" style="fill: none; stroke: #ff0000; stroke-width: 1.5; stroke-linecap: square"/>
   </g>
   <g id="line2d_14">
    <path d="M 49.520227 261.216 
L 52.799566 261.138336 
L 56.078905 260.996333 
L 59.358244 260.812447 
L 62.637583 260.594689 
L 65.916921 260.347692 
L 69.19626 260.074579 
L 72.475599 259.777645 
L 75.754938 259.458667 
L 79.034277 259.119076 
L 82.313616 258.760053 
L 85.592955 258.382599 
L 88.872293 257.987574 
L 92.151632 257.575727 
L 95.430971 257.147718 
L 98.71031 256.704137 
L 101.989649 256.245513 
L 105.268988 255.772323 
L 108.548326 255.285003 
L 111.827665 254.78395 
L 115.107004 254.269533 
L 118.386343 253.742089 
L 121.665682 253.201932 
L 124.945021 252.649356 
L 128.22436 252.084632 
L 131.503698 251.508017 
L 134.783037 250.919752 
L 138.062376 250.320062 
L 141.341715 249.709161 
L 144.621054 249.087252 
L 147.900393 248.454525 
L 151.179731 247.811163 
L 154.45907 247.157339 
L 157.738409 246.493218 
L 161.017748 245.818956 
L 164.297087 245.134704 
L 167.576426 244.440606 
L 170.855764 243.736799 
L 174.135103 243.023417 
L 177.414442 242.300584 
L 180.693781 241.568424 
L 183.97312 240.827054 
L 187.252459 240.076587 
L 190.531798 239.317132 
L 193.811136 238.548794 
L 197.090475 237.771674 
L 200.369814 236.985871 
L 203.649153 236.191479 
L 206.928492 235.388591 
L 210.207831 234.577295 
L 213.487169 233.757678 
L 216.766508 232.929824 
L 220.045847 232.093812 
L 223.325186 231.249723 
L 226.604525 230.397633 
L 229.883864 229.537616 
L 233.163202 228.669745 
L 236.442541 227.79409 
L 239.72188 226.91072 
L 243.001219 226.019701 
L 246.280558 225.121099 
L 249.559897 224.214977 
L 252.839236 223.301397 
L 256.118574 222.380419 
L 259.397913 221.452103 
L 262.677252 220.516505 
L 265.956591 219.573683 
L 269.23593 218.623691 
L 272.515269 217.666582 
L 275.794607 216.70241 
L 279.073946 215.731226 
L 282.353285 214.753079 
L 285.632624 213.76802 
L 288.911963 212.776096 
L 292.191302 211.777355 
L 295.47064 210.771842 
L 298.749979 209.759603 
L 302.029318 208.740683 
L 305.308657 207.715125 
L 308.587996 206.682971 
L 311.867335 205.644264 
L 315.146674 204.599045 
L 318.426012 203.547353 
L 321.705351 202.489229 
L 324.98469 201.424712 
L 328.264029 200.353839 
L 331.543368 199.276648 
L 334.822707 198.193176 
L 338.102045 197.103459 
L 341.381384 196.007533 
L 344.660723 194.905432 
L 347.940062 193.797192 
L 351.219401 192.682845 
L 354.49874 191.562426 
L 357.778079 190.435967 
L 361.057417 189.3035 
L 364.336756 188.165056 
L 367.616095 187.020668 
L 370.895434 185.870365 
L 374.174773 184.714179 
" clip-path="url(#p22dc22246d)" style="fill: none; stroke-dasharray: 5.55,2.4; stroke-dashoffset: 0; stroke: #0000ff; stroke-width: 1.5"/>
   </g>
   <g id="line2d_15">
    <path d="M 49.520227 261.216 
L 52.799566 261.191317 
L 56.078905 261.117267 
L 59.358244 260.993851 
L 62.637583 260.821069 
L 65.916921 260.59892 
L 69.19626 260.327405 
L 72.475599 260.006523 
L 75.754938 259.636275 
L 79.034277 259.216661 
L 82.313616 258.74768 
L 85.592955 258.229333 
L 88.872293 257.66162 
L 92.151632 257.04454 
L 95.430971 256.378094 
L 98.71031 255.662281 
L 101.989649 254.897102 
L 105.268988 254.082556 
L 108.548326 253.218645 
L 111.827665 252.305366 
L 115.107004 251.342722 
L 118.386343 250.330711 
L 121.665682 249.269333 
L 124.945021 248.15859 
L 128.22436 246.998479 
L 131.503698 245.789003 
L 134.783037 244.53016 
L 138.062376 243.22195 
L 141.341715 241.864375 
L 144.621054 240.457433 
L 147.900393 239.001124 
L 151.179731 237.495449 
L 154.45907 235.940408 
L 157.738409 234.336 
L 161.017748 232.682226 
L 164.297087 230.979085 
L 167.576426 229.226579 
L 170.855764 227.424705 
L 174.135103 225.573466 
L 177.414442 223.67286 
L 180.693781 221.722887 
L 183.97312 219.723548 
L 187.252459 217.674843 
L 190.531798 215.576771 
L 193.811136 213.429333 
L 197.090475 211.232529 
L 200.369814 208.986358 
L 203.649153 206.690821 
L 206.928492 204.345917 
L 210.207831 201.951647 
L 213.487169 199.508011 
L 216.766508 197.015008 
L 220.045847 194.472639 
L 223.325186 191.880904 
L 226.604525 189.239802 
L 229.883864 186.549333 
L 233.163202 183.809499 
L 236.442541 181.020298 
L 239.72188 178.18173 
L 243.001219 175.293796 
L 246.280558 172.356496 
L 249.559897 169.369829 
L 252.839236 166.333796 
L 256.118574 163.248397 
L 259.397913 160.113631 
L 262.677252 156.929499 
L 265.956591 153.696 
L 269.23593 150.413135 
L 272.515269 147.080904 
L 275.794607 143.699306 
L 279.073946 140.268342 
L 282.353285 136.788011 
L 285.632624 133.258314 
L 288.911963 129.679251 
L 292.191302 126.050821 
L 295.47064 122.373025 
L 298.749979 118.645862 
L 302.029318 114.869333 
L 305.308657 111.043438 
L 308.587996 107.168176 
L 311.867335 103.243548 
L 315.146674 99.269554 
L 318.426012 95.246193 
L 321.705351 91.173466 
L 324.98469 87.051372 
L 328.264029 82.879912 
L 331.543368 78.659085 
L 334.822707 74.388893 
L 338.102045 70.069333 
L 341.381384 65.700408 
L 344.660723 61.282116 
L 347.940062 56.814457 
L 351.219401 52.297433 
L 354.49874 47.731041 
L 357.778079 43.115284 
L 361.057417 38.45016 
L 364.336756 33.735669 
L 367.616095 28.971813 
L 370.895434 24.15859 
L 374.174773 19.296 
" clip-path="url(#p22dc22246d)" style="fill: none; stroke-dasharray: 3,4.95; stroke-dashoffset: 0; stroke: #008000; stroke-width: 3"/>
   </g>
   <g id="patch_3">
    <path d="M 33.2875 273.312 
L 33.2875 7.2 
" style="fill: none; stroke: #000000; stroke-width: 0.8; stroke-linejoin: miter; stroke-linecap: square"/>
   </g>
   <g id="patch_4">
    <path d="M 390.4075 273.312 
L 390.4075 7.2 
" style="fill: none; stroke: #000000; stroke-width: 0.8; stroke-linejoin: miter; stroke-linecap: square"/>
   </g>
   <g id="patch_5">
    <path d="M 33.2875 273.312 
L 390.4075 273.312 
" style="fill: none; stroke: #000000; stroke-width: 0.8; stroke-linejoin: miter; stroke-linecap: square"/>
   </g>
   <g id="patch_6">
    <path d="M 33.2875 7.2 
L 390.4075 7.2 
" style="fill: none; stroke: #000000; stroke-width: 0.8; stroke-linejoin: miter; stroke-linecap: square"/>
   </g>
   <g id="legend_1">
    <g id="patch_7">
     <path d="M 40.2875 59.634375 
L 184.5375 59.634375 
Q 186.5375 59.634375 186.5375 57.634375 
L 186.5375 14.2 
Q 186.5375 12.2 184.5375 12.2 
L 40.2875 12.2 
Q 38.2875 12.2 38.2875 14.2 
L 38.2875 57.634375 
Q 38.2875 59.634375 40.2875 59.634375 
z
" style="fill: #ffffff; opacity: 0.8; stroke: #cccccc; stroke-linejoin: miter"/>
    </g>
    <g id="line2d_16">
     <path d="M 42.2875 20.298437 
L 52.2875 20.298437 
L 62.2875 20.298437 
" style="fill: none; stroke: #ff0000; stroke-width: 1.5; stroke-linecap: square"/>
    </g>
    <g id="text_13">
     <!-- línia vermella -->
     <g transform="translate(70.2875 23.798437) scale(0.1 -0.1)">
      <defs>
       <path id="DejaVuSans-6c" d="M 603 4863 
L 1178 4863 
L 1178 0 
L 603 0 
L 603 4863 
z
" transform="scale(0.015625)"/>
       <path id="DejaVuSans-ed" d="M 1322 5119 
L 1944 5119 
L 926 3944 
L 447 3944 
L 1322 5119 
z
M 603 3500 
L 1178 3500 
L 1178 0 
L 603 0 
L 603 3500 
z
M 891 3584 
L 891 3584 
z
" transform="scale(0.015625)"/>
       <path id="DejaVuSans-6e" d="M 3513 2113 
L 3513 0 
L 2938 0 
L 2938 2094 
Q 2938 2591 2744 2837 
Q 2550 3084 2163 3084 
Q 1697 3084 1428 2787 
Q 1159 2491 1159 1978 
L 1159 0 
L 581 0 
L 581 3500 
L 1159 3500 
L 1159 2956 
Q 1366 3272 1645 3428 
Q 1925 3584 2291 3584 
Q 2894 3584 3203 3211 
Q 3513 2838 3513 2113 
z
" transform="scale(0.015625)"/>
       <path id="DejaVuSans-69" d="M 603 3500 
L 1178 3500 
L 1178 0 
L 603 0 
L 603 3500 
z
M 603 4863 
L 1178 4863 
L 1178 4134 
L 603 4134 
L 603 4863 
z
" transform="scale(0.015625)"/>
       <path id="DejaVuSans-61" d="M 2194 1759 
Q 1497 1759 1228 1600 
Q 959 1441 959 1056 
Q 959 750 1161 570 
Q 1363 391 1709 391 
Q 2188 391 2477 730 
Q 2766 1069 2766 1631 
L 2766 1759 
L 2194 1759 
z
M 3341 1997 
L 3341 0 
L 2766 0 
L 2766 531 
Q 2569 213 2275 61 
Q 1981 -91 1556 -91 
Q 1019 -91 701 211 
Q 384 513 384 1019 
Q 384 1609 779 1909 
Q 1175 2209 1959 2209 
L 2766 2209 
L 2766 2266 
Q 2766 2663 2505 2880 
Q 2244 3097 1772 3097 
Q 1472 3097 1187 3025 
Q 903 2953 641 2809 
L 641 3341 
Q 956 3463 1253 3523 
Q 1550 3584 1831 3584 
Q 2591 3584 2966 3190 
Q 3341 2797 3341 1997 
z
" transform="scale(0.015625)"/>
       <path id="DejaVuSans-20" transform="scale(0.015625)"/>
       <path id="DejaVuSans-76" d="M 191 3500 
L 800 3500 
L 1894 563 
L 2988 3500 
L 3597 3500 
L 2284 0 
L 1503 0 
L 191 3500 
z
" transform="scale(0.015625)"/>
       <path id="DejaVuSans-65" d="M 3597 1894 
L 3597 1613 
L 953 1613 
Q 991 1019 1311 708 
Q 1631 397 2203 397 
Q 2534 397 2845 478 
Q 3156 559 3463 722 
L 3463 178 
Q 3153 47 2828 -22 
Q 2503 -91 2169 -91 
Q 1331 -91 842 396 
Q 353 884 353 1716 
Q 353 2575 817 3079 
Q 1281 3584 2069 3584 
Q 2775 3584 3186 3129 
Q 3597 2675 3597 1894 
z
M 3022 2063 
Q 3016 2534 2758 2815 
Q 2500 3097 2075 3097 
Q 1594 3097 1305 2825 
Q 1016 2553 972 2059 
L 3022 2063 
z
" transform="scale(0.015625)"/>
       <path id="DejaVuSans-72" d="M 2631 2963 
Q 2534 3019 2420 3045 
Q 2306 3072 2169 3072 
Q 1681 3072 1420 2755 
Q 1159 2438 1159 1844 
L 1159 0 
L 581 0 
L 581 3500 
L 1159 3500 
L 1159 2956 
Q 1341 3275 1631 3429 
Q 1922 3584 2338 3584 
Q 2397 3584 2469 3576 
Q 2541 3569 2628 3553 
L 2631 2963 
z
" transform="scale(0.015625)"/>
       <path id="DejaVuSans-6d" d="M 3328 2828 
Q 3544 3216 3844 3400 
Q 4144 3584 4550 3584 
Q 5097 3584 5394 3201 
Q 5691 2819 5691 2113 
L 5691 0 
L 5113 0 
L 5113 2094 
Q 5113 2597 4934 2840 
Q 4756 3084 4391 3084 
Q 3944 3084 3684 2787 
Q 3425 2491 3425 1978 
L 3425 0 
L 2847 0 
L 2847 2094 
Q 2847 2600 2669 2842 
Q 2491 3084 2119 3084 
Q 1678 3084 1418 2786 
Q 1159 2488 1159 1978 
L 1159 0 
L 581 0 
L 581 3500 
L 1159 3500 
L 1159 2956 
Q 1356 3278 1631 3431 
Q 1906 3584 2284 3584 
Q 2666 3584 2933 3390 
Q 3200 3197 3328 2828 
z
" transform="scale(0.015625)"/>
      </defs>
      <use xlink:href="#DejaVuSans-6c"/>
      <use xlink:href="#DejaVuSans-ed" transform="translate(27.783203 0)"/>
      <use xlink:href="#DejaVuSans-6e" transform="translate(55.566406 0)"/>
      <use xlink:href="#DejaVuSans-69" transform="translate(118.945312 0)"/>
      <use xlink:href="#DejaVuSans-61" transform="translate(146.728516 0)"/>
      <use xlink:href="#DejaVuSans-20" transform="translate(208.007812 0)"/>
      <use xlink:href="#DejaVuSans-76" transform="translate(239.794922 0)"/>
      <use xlink:href="#DejaVuSans-65" transform="translate(298.974609 0)"/>
      <use xlink:href="#DejaVuSans-72" transform="translate(360.498047 0)"/>
      <use xlink:href="#DejaVuSans-6d" transform="translate(399.861328 0)"/>
      <use xlink:href="#DejaVuSans-65" transform="translate(497.273438 0)"/>
      <use xlink:href="#DejaVuSans-6c" transform="translate(558.796875 0)"/>
      <use xlink:href="#DejaVuSans-6c" transform="translate(586.580078 0)"/>
      <use xlink:href="#DejaVuSans-61" transform="translate(614.363281 0)"/>
     </g>
    </g>
    <g id="line2d_17">
     <path d="M 42.2875 34.976562 
L 52.2875 34.976562 
L 62.2875 34.976562 
" style="fill: none; stroke-dasharray: 5.55,2.4; stroke-dashoffset: 0; stroke: #0000ff; stroke-width: 1.5"/>
    </g>
    <g id="text_14">
     <!-- línia blava discontínua -->
     <g transform="translate(70.2875 38.476562) scale(0.1 -0.1)">
      <defs>
       <path id="DejaVuSans-62" d="M 3116 1747 
Q 3116 2381 2855 2742 
Q 2594 3103 2138 3103 
Q 1681 3103 1420 2742 
Q 1159 2381 1159 1747 
Q 1159 1113 1420 752 
Q 1681 391 2138 391 
Q 2594 391 2855 752 
Q 3116 1113 3116 1747 
z
M 1159 2969 
Q 1341 3281 1617 3432 
Q 1894 3584 2278 3584 
Q 2916 3584 3314 3078 
Q 3713 2572 3713 1747 
Q 3713 922 3314 415 
Q 2916 -91 2278 -91 
Q 1894 -91 1617 61 
Q 1341 213 1159 525 
L 1159 0 
L 581 0 
L 581 4863 
L 1159 4863 
L 1159 2969 
z
" transform="scale(0.015625)"/>
       <path id="DejaVuSans-64" d="M 2906 2969 
L 2906 4863 
L 3481 4863 
L 3481 0 
L 2906 0 
L 2906 525 
Q 2725 213 2448 61 
Q 2172 -91 1784 -91 
Q 1150 -91 751 415 
Q 353 922 353 1747 
Q 353 2572 751 3078 
Q 1150 3584 1784 3584 
Q 2172 3584 2448 3432 
Q 2725 3281 2906 2969 
z
M 947 1747 
Q 947 1113 1208 752 
Q 1469 391 1925 391 
Q 2381 391 2643 752 
Q 2906 1113 2906 1747 
Q 2906 2381 2643 2742 
Q 2381 3103 1925 3103 
Q 1469 3103 1208 2742 
Q 947 2381 947 1747 
z
" transform="scale(0.015625)"/>
       <path id="DejaVuSans-73" d="M 2834 3397 
L 2834 2853 
Q 2591 2978 2328 3040 
Q 2066 3103 1784 3103 
Q 1356 3103 1142 2972 
Q 928 2841 928 2578 
Q 928 2378 1081 2264 
Q 1234 2150 1697 2047 
L 1894 2003 
Q 2506 1872 2764 1633 
Q 3022 1394 3022 966 
Q 3022 478 2636 193 
Q 2250 -91 1575 -91 
Q 1294 -91 989 -36 
Q 684 19 347 128 
L 347 722 
Q 666 556 975 473 
Q 1284 391 1588 391 
Q 1994 391 2212 530 
Q 2431 669 2431 922 
Q 2431 1156 2273 1281 
Q 2116 1406 1581 1522 
L 1381 1569 
Q 847 1681 609 1914 
Q 372 2147 372 2553 
Q 372 3047 722 3315 
Q 1072 3584 1716 3584 
Q 2034 3584 2315 3537 
Q 2597 3491 2834 3397 
z
" transform="scale(0.015625)"/>
       <path id="DejaVuSans-63" d="M 3122 3366 
L 3122 2828 
Q 2878 2963 2633 3030 
Q 2388 3097 2138 3097 
Q 1578 3097 1268 2742 
Q 959 2388 959 1747 
Q 959 1106 1268 751 
Q 1578 397 2138 397 
Q 2388 397 2633 464 
Q 2878 531 3122 666 
L 3122 134 
Q 2881 22 2623 -34 
Q 2366 -91 2075 -91 
Q 1284 -91 818 406 
Q 353 903 353 1747 
Q 353 2603 823 3093 
Q 1294 3584 2113 3584 
Q 2378 3584 2631 3529 
Q 2884 3475 3122 3366 
z
" transform="scale(0.015625)"/>
       <path id="DejaVuSans-6f" d="M 1959 3097 
Q 1497 3097 1228 2736 
Q 959 2375 959 1747 
Q 959 1119 1226 758 
Q 1494 397 1959 397 
Q 2419 397 2687 759 
Q 2956 1122 2956 1747 
Q 2956 2369 2687 2733 
Q 2419 3097 1959 3097 
z
M 1959 3584 
Q 2709 3584 3137 3096 
Q 3566 2609 3566 1747 
Q 3566 888 3137 398 
Q 2709 -91 1959 -91 
Q 1206 -91 779 398 
Q 353 888 353 1747 
Q 353 2609 779 3096 
Q 1206 3584 1959 3584 
z
" transform="scale(0.015625)"/>
       <path id="DejaVuSans-74" d="M 1172 4494 
L 1172 3500 
L 2356 3500 
L 2356 3053 
L 1172 3053 
L 1172 1153 
Q 1172 725 1289 603 
Q 1406 481 1766 481 
L 2356 481 
L 2356 0 
L 1766 0 
Q 1100 0 847 248 
Q 594 497 594 1153 
L 594 3053 
L 172 3053 
L 172 3500 
L 594 3500 
L 594 4494 
L 1172 4494 
z
" transform="scale(0.015625)"/>
       <path id="DejaVuSans-75" d="M 544 1381 
L 544 3500 
L 1119 3500 
L 1119 1403 
Q 1119 906 1312 657 
Q 1506 409 1894 409 
Q 2359 409 2629 706 
Q 2900 1003 2900 1516 
L 2900 3500 
L 3475 3500 
L 3475 0 
L 2900 0 
L 2900 538 
Q 2691 219 2414 64 
Q 2138 -91 1772 -91 
Q 1169 -91 856 284 
Q 544 659 544 1381 
z
M 1991 3584 
L 1991 3584 
z
" transform="scale(0.015625)"/>
      </defs>
      <use xlink:href="#DejaVuSans-6c"/>
      <use xlink:href="#DejaVuSans-ed" transform="translate(27.783203 0)"/>
      <use xlink:href="#DejaVuSans-6e" transform="translate(55.566406 0)"/>
      <use xlink:href="#DejaVuSans-69" transform="translate(118.945312 0)"/>
      <use xlink:href="#DejaVuSans-61" transform="translate(146.728516 0)"/>
      <use xlink:href="#DejaVuSans-20" transform="translate(208.007812 0)"/>
      <use xlink:href="#DejaVuSans-62" transform="translate(239.794922 0)"/>
      <use xlink:href="#DejaVuSans-6c" transform="translate(303.271484 0)"/>
      <use xlink:href="#DejaVuSans-61" transform="translate(331.054688 0)"/>
      <use xlink:href="#DejaVuSans-76" transform="translate(392.333984 0)"/>
      <use xlink:href="#DejaVuSans-61" transform="translate(451.513672 0)"/>
      <use xlink:href="#DejaVuSans-20" transform="translate(512.792969 0)"/>
      <use xlink:href="#DejaVuSans-64" transform="translate(544.580078 0)"/>
      <use xlink:href="#DejaVuSans-69" transform="translate(608.056641 0)"/>
      <use xlink:href="#DejaVuSans-73" transform="translate(635.839844 0)"/>
      <use xlink:href="#DejaVuSans-63" transform="translate(687.939453 0)"/>
      <use xlink:href="#DejaVuSans-6f" transform="translate(742.919922 0)"/>
      <use xlink:href="#DejaVuSans-6e" transform="translate(804.101562 0)"/>
      <use xlink:href="#DejaVuSans-74" transform="translate(867.480469 0)"/>
      <use xlink:href="#DejaVuSans-ed" transform="translate(906.689453 0)"/>
      <use xlink:href="#DejaVuSans-6e" transform="translate(934.472656 0)"/>
      <use xlink:href="#DejaVuSans-75" transform="translate(997.851562 0)"/>
      <use xlink:href="#DejaVuSans-61" transform="translate(1061.230469 0)"/>
     </g>
    </g>
    <g id="line2d_18">
     <path d="M 42.2875 50.054687 
L 52.2875 50.054687 
L 62.2875 50.054687 
" style="fill: none; stroke-dasharray: 3,4.95; stroke-dashoffset: 0; stroke: #008000; stroke-width: 3"/>
    </g>
    <g id="text_15">
     <!-- línia verda de punts -->
     <g transform="translate(70.2875 53.554687) scale(0.1 -0.1)">
      <defs>
       <path id="DejaVuSans-70" d="M 1159 525 
L 1159 -1331 
L 581 -1331 
L 581 3500 
L 1159 3500 
L 1159 2969 
Q 1341 3281 1617 3432 
Q 1894 3584 2278 3584 
Q 2916 3584 3314 3078 
Q 3713 2572 3713 1747 
Q 3713 922 3314 415 
Q 2916 -91 2278 -91 
Q 1894 -91 1617 61 
Q 1341 213 1159 525 
z
M 3116 1747 
Q 3116 2381 2855 2742 
Q 2594 3103 2138 3103 
Q 1681 3103 1420 2742 
Q 1159 2381 1159 1747 
Q 1159 1113 1420 752 
Q 1681 391 2138 391 
Q 2594 391 2855 752 
Q 3116 1113 3116 1747 
z
" transform="scale(0.015625)"/>
      </defs>
      <use xlink:href="#DejaVuSans-6c"/>
      <use xlink:href="#DejaVuSans-ed" transform="translate(27.783203 0)"/>
      <use xlink:href="#DejaVuSans-6e" transform="translate(55.566406 0)"/>
      <use xlink:href="#DejaVuSans-69" transform="translate(118.945312 0)"/>
      <use xlink:href="#DejaVuSans-61" transform="translate(146.728516 0)"/>
      <use xlink:href="#DejaVuSans-20" transform="translate(208.007812 0)"/>
      <use xlink:href="#DejaVuSans-76" transform="translate(239.794922 0)"/>
      <use xlink:href="#DejaVuSans-65" transform="translate(298.974609 0)"/>
      <use xlink:href="#DejaVuSans-72" transform="translate(360.498047 0)"/>
      <use xlink:href="#DejaVuSans-64" transform="translate(399.861328 0)"/>
      <use xlink:href="#DejaVuSans-61" transform="translate(463.337891 0)"/>
      <use xlink:href="#DejaVuSans-20" transform="translate(524.617188 0)"/>
      <use xlink:href="#DejaVuSans-64" transform="translate(556.404297 0)"/>
      <use xlink:href="#DejaVuSans-65" transform="translate(619.880859 0)"/>
      <use xlink:href="#DejaVuSans-20" transform="translate(681.404297 0)"/>
      <use xlink:href="#DejaVuSans-70" transform="translate(713.191406 0)"/>
      <use xlink:href="#DejaVuSans-75" transform="translate(776.667969 0)"/>
      <use xlink:href="#DejaVuSans-6e" transform="translate(840.046875 0)"/>
      <use xlink:href="#DejaVuSans-74" transform="translate(903.425781 0)"/>
      <use xlink:href="#DejaVuSans-73" transform="translate(942.634766 0)"/>
     </g>
    </g>
   </g>
  </g>
 </g>
 <defs>
  <clipPath id="p22dc22246d">
   <rect x="33.2875" y="7.2" width="357.12" height="266.112"/>
  </clipPath>
 </defs>
</svg>
