<?xml version="1.0" encoding="utf-8" standalone="no"?>
<!DOCTYPE svg PUBLIC "-//W3C//DTD SVG 1.1//EN"
  "http://www.w3.org/Graphics/SVG/1.1/DTD/svg11.dtd">
<svg xmlns:xlink="http://www.w3.org/1999/xlink" width="712.489062pt" height="423.989687pt" viewBox="0 0 712.489062 423.989687" xmlns="http://www.w3.org/2000/svg" version="1.1">
 <metadata>
  <rdf:RDF xmlns:dc="http://purl.org/dc/elements/1.1/" xmlns:cc="http://creativecommons.org/ns#" xmlns:rdf="http://www.w3.org/1999/02/22-rdf-syntax-ns#">
   <cc:Work>
    <dc:type rdf:resource="http://purl.org/dc/dcmitype/StillImage"/>
    <dc:date>2025-11-27T14:34:30.496844</dc:date>
    <dc:format>image/svg+xml</dc:format>
    <dc:creator>
     <cc:Agent>
      <dc:title>Matplotlib v3.10.7, https://matplotlib.org/</dc:title>
     </cc:Agent>
    </dc:creator>
   </cc:Work>
  </rdf:RDF>
 </metadata>
 <defs>
  <style type="text/css">*{stroke-linejoin: round; stroke-linecap: butt}</style>
 </defs>
 <g id="figure_1">
  <g id="patch_1">
   <path d="M 0 423.989687 
L 712.489062 423.989687 
L 712.489062 0 
L 0 0 
z
" style="fill: #ffffff"/>
  </g>
  <g id="axes_1">
   <g id="patch_2">
    <path d="M 60.459063 384.497812 
L 705.289062 384.497812 
L 705.289062 24.397812 
L 60.459063 24.397812 
z
" style="fill: #ffffff"/>
   </g>
   <g id="FillBetweenPolyCollection_1">
    <path d="M 89.769517 40.765994 
L 89.769517 204.458115 
L 95.690821 194.076119 
L 101.612125 183.735928 
L 107.533429 173.479177 
L 113.454733 163.347168 
L 119.376037 153.380698 
L 125.297341 143.619899 
L 131.218645 134.104074 
L 137.139949 124.87154 
L 143.061253 115.959473 
L 148.982557 107.403759 
L 154.90386 99.238848 
L 160.825164 91.497618 
L 166.746468 84.21124 
L 172.667772 77.409054 
L 178.589076 71.11845 
L 184.51038 65.364757 
L 190.431684 60.171145 
L 196.352988 55.558525 
L 202.274292 51.545471 
L 208.195596 48.148142 
L 214.1169 45.380218 
L 220.038204 43.252845 
L 225.959508 41.774589 
L 231.880812 40.951402 
L 237.802116 40.786599 
L 243.72342 41.280843 
L 249.644724 42.432144 
L 255.566028 44.235867 
L 261.487332 46.684748 
L 267.408636 49.768927 
L 273.329939 53.475985 
L 279.251243 57.790994 
L 285.172547 62.69658 
L 291.093851 68.17299 
L 297.015155 74.198172 
L 302.936459 80.747864 
L 308.857763 87.795695 
L 314.779067 95.313283 
L 320.700371 103.270359 
L 326.621675 111.634883 
L 332.542979 120.373173 
L 338.464283 129.450044 
L 344.385587 138.828945 
L 350.306891 148.472112 
L 356.228195 158.340715 
L 362.149499 168.395016 
L 368.070803 178.594531 
L 373.992107 188.898189 
L 379.913411 199.264502 
L 385.834714 209.651727 
L 391.756018 220.01804 
L 397.677322 230.321698 
L 403.598626 240.521213 
L 409.51993 250.575514 
L 415.441234 260.444117 
L 421.362538 270.087284 
L 427.283842 279.466186 
L 433.205146 288.543056 
L 439.12645 297.281346 
L 445.047754 305.64587 
L 450.969058 313.602946 
L 456.890362 321.120535 
L 462.811666 328.168365 
L 468.73297 334.718058 
L 474.654274 340.743239 
L 480.575578 346.219649 
L 486.496882 351.125235 
L 492.418186 355.440245 
L 498.339489 359.147302 
L 504.260793 362.231481 
L 510.182097 364.680362 
L 516.103401 366.484085 
L 522.024705 367.635387 
L 527.946009 368.129631 
L 533.867313 367.964827 
L 539.788617 367.14164 
L 545.709921 365.663384 
L 551.631225 363.536011 
L 557.552529 360.768087 
L 563.473833 357.370759 
L 569.395137 353.357705 
L 575.316441 348.745085 
L 581.237745 343.551472 
L 587.159049 337.797779 
L 593.080353 331.507175 
L 599.001657 324.704989 
L 604.922961 317.418611 
L 610.844265 309.677381 
L 616.765568 301.512471 
L 622.686872 292.956756 
L 628.608176 284.044689 
L 634.52948 274.812155 
L 640.450784 265.29633 
L 646.372088 255.535531 
L 652.293392 245.569061 
L 658.214696 235.437052 
L 664.136 225.180302 
L 670.057304 214.840111 
L 675.978608 204.458115 
L 675.978608 40.765994 
L 675.978608 40.765994 
L 670.057304 41.09556 
L 664.136 42.082928 
L 658.214696 43.724124 
L 652.293392 46.012539 
L 646.372088 48.938959 
L 640.450784 52.491599 
L 634.52948 56.656155 
L 628.608176 61.415857 
L 622.686872 66.75154 
L 616.765568 72.641719 
L 610.844265 79.062675 
L 604.922961 85.988555 
L 599.001657 93.39147 
L 593.080353 101.241612 
L 587.159049 109.507369 
L 581.237745 118.15546 
L 575.316441 127.151061 
L 569.395137 136.45795 
L 563.473833 146.038652 
L 557.552529 155.854589 
L 551.631225 165.866235 
L 545.709921 176.033276 
L 539.788617 186.314775 
L 533.867313 196.66933 
L 527.946009 207.055248 
L 522.024705 217.430708 
L 516.103401 227.753932 
L 510.182097 237.983352 
L 504.260793 248.077778 
L 498.339489 257.996563 
L 492.418186 267.699767 
L 486.496882 277.14832 
L 480.575578 286.304175 
L 474.654274 295.130464 
L 468.73297 303.591648 
L 462.811666 311.653657 
L 456.890362 319.284026 
L 450.969058 326.452033 
L 445.047754 333.128812 
L 439.12645 339.287481 
L 433.205146 344.903239 
L 427.283842 349.953474 
L 421.362538 354.417851 
L 415.441234 358.278392 
L 409.51993 361.519554 
L 403.598626 364.128285 
L 397.677322 366.09408 
L 391.756018 367.409024 
L 385.834714 368.067823 
L 379.913411 368.067823 
L 373.992107 367.409024 
L 368.070803 366.09408 
L 362.149499 364.128285 
L 356.228195 361.519554 
L 350.306891 358.278392 
L 344.385587 354.417851 
L 338.464283 349.953474 
L 332.542979 344.903239 
L 326.621675 339.287481 
L 320.700371 333.128812 
L 314.779067 326.452033 
L 308.857763 319.284026 
L 302.936459 311.653657 
L 297.015155 303.591648 
L 291.093851 295.130464 
L 285.172547 286.304175 
L 279.251243 277.14832 
L 273.329939 267.699767 
L 267.408636 257.996563 
L 261.487332 248.077778 
L 255.566028 237.983352 
L 249.644724 227.753932 
L 243.72342 217.430708 
L 237.802116 207.055248 
L 231.880812 196.66933 
L 225.959508 186.314775 
L 220.038204 176.033276 
L 214.1169 165.866235 
L 208.195596 155.854589 
L 202.274292 146.038652 
L 196.352988 136.45795 
L 190.431684 127.151061 
L 184.51038 118.15546 
L 178.589076 109.507369 
L 172.667772 101.241612 
L 166.746468 93.39147 
L 160.825164 85.988555 
L 154.90386 79.062675 
L 148.982557 72.641719 
L 143.061253 66.75154 
L 137.139949 61.415857 
L 131.218645 56.656155 
L 125.297341 52.491599 
L 119.376037 48.938959 
L 113.454733 46.012539 
L 107.533429 43.724124 
L 101.612125 42.082928 
L 95.690821 41.09556 
L 89.769517 40.765994 
z
" clip-path="url(#p726722ba3c)" style="fill: #1f77b4; fill-opacity: 0.3"/>
   </g>
   <g id="matplotlib.axis_1">
    <g id="xtick_1">
     <g id="line2d_1">
      <path d="M 89.769517 384.497812 
L 89.769517 24.397812 
" clip-path="url(#p726722ba3c)" style="fill: none; stroke: #b0b0b0; stroke-opacity: 0.3; stroke-width: 0.8; stroke-linecap: square"/>
     </g>
     <g id="line2d_2">
      <defs>
       <path id="m70dbacf71a" d="M 0 0 
L 0 3.5 
" style="stroke: #000000; stroke-width: 0.8"/>
      </defs>
      <g>
       <use xlink:href="#m70dbacf71a" x="89.769517" y="384.497812" style="stroke: #000000; stroke-width: 0.8"/>
      </g>
     </g>
     <g id="text_1">
      <!-- 0 -->
      <g transform="translate(86.588267 399.09625) scale(0.1 -0.1)">
       <defs>
        <path id="DejaVuSans-30" d="M 2034 4250 
Q 1547 4250 1301 3770 
Q 1056 3291 1056 2328 
Q 1056 1369 1301 889 
Q 1547 409 2034 409 
Q 2525 409 2770 889 
Q 3016 1369 3016 2328 
Q 3016 3291 2770 3770 
Q 2525 4250 2034 4250 
z
M 2034 4750 
Q 2819 4750 3233 4129 
Q 3647 3509 3647 2328 
Q 3647 1150 3233 529 
Q 2819 -91 2034 -91 
Q 1250 -91 836 529 
Q 422 1150 422 2328 
Q 422 3509 836 4129 
Q 1250 4750 2034 4750 
z
" transform="scale(0.015625)"/>
       </defs>
       <use xlink:href="#DejaVuSans-30"/>
      </g>
     </g>
    </g>
    <g id="xtick_2">
     <g id="line2d_3">
      <path d="M 183.067592 384.497812 
L 183.067592 24.397812 
" clip-path="url(#p726722ba3c)" style="fill: none; stroke: #b0b0b0; stroke-opacity: 0.3; stroke-width: 0.8; stroke-linecap: square"/>
     </g>
     <g id="line2d_4">
      <g>
       <use xlink:href="#m70dbacf71a" x="183.067592" y="384.497812" style="stroke: #000000; stroke-width: 0.8"/>
      </g>
     </g>
     <g id="text_2">
      <!-- 1 -->
      <g transform="translate(179.886342 399.09625) scale(0.1 -0.1)">
       <defs>
        <path id="DejaVuSans-31" d="M 794 531 
L 1825 531 
L 1825 4091 
L 703 3866 
L 703 4441 
L 1819 4666 
L 2450 4666 
L 2450 531 
L 3481 531 
L 3481 0 
L 794 0 
L 794 531 
z
" transform="scale(0.015625)"/>
       </defs>
       <use xlink:href="#DejaVuSans-31"/>
      </g>
     </g>
    </g>
    <g id="xtick_3">
     <g id="line2d_5">
      <path d="M 276.365666 384.497812 
L 276.365666 24.397812 
" clip-path="url(#p726722ba3c)" style="fill: none; stroke: #b0b0b0; stroke-opacity: 0.3; stroke-width: 0.8; stroke-linecap: square"/>
     </g>
     <g id="line2d_6">
      <g>
       <use xlink:href="#m70dbacf71a" x="276.365666" y="384.497812" style="stroke: #000000; stroke-width: 0.8"/>
      </g>
     </g>
     <g id="text_3">
      <!-- 2 -->
      <g transform="translate(273.184416 399.09625) scale(0.1 -0.1)">
       <defs>
        <path id="DejaVuSans-32" d="M 1228 531 
L 3431 531 
L 3431 0 
L 469 0 
L 469 531 
Q 828 903 1448 1529 
Q 2069 2156 2228 2338 
Q 2531 2678 2651 2914 
Q 2772 3150 2772 3378 
Q 2772 3750 2511 3984 
Q 2250 4219 1831 4219 
Q 1534 4219 1204 4116 
Q 875 4013 500 3803 
L 500 4441 
Q 881 4594 1212 4672 
Q 1544 4750 1819 4750 
Q 2544 4750 2975 4387 
Q 3406 4025 3406 3419 
Q 3406 3131 3298 2873 
Q 3191 2616 2906 2266 
Q 2828 2175 2409 1742 
Q 1991 1309 1228 531 
z
" transform="scale(0.015625)"/>
       </defs>
       <use xlink:href="#DejaVuSans-32"/>
      </g>
     </g>
    </g>
    <g id="xtick_4">
     <g id="line2d_7">
      <path d="M 369.663741 384.497812 
L 369.663741 24.397812 
" clip-path="url(#p726722ba3c)" style="fill: none; stroke: #b0b0b0; stroke-opacity: 0.3; stroke-width: 0.8; stroke-linecap: square"/>
     </g>
     <g id="line2d_8">
      <g>
       <use xlink:href="#m70dbacf71a" x="369.663741" y="384.497812" style="stroke: #000000; stroke-width: 0.8"/>
      </g>
     </g>
     <g id="text_4">
      <!-- 3 -->
      <g transform="translate(366.482491 399.09625) scale(0.1 -0.1)">
       <defs>
        <path id="DejaVuSans-33" d="M 2597 2516 
Q 3050 2419 3304 2112 
Q 3559 1806 3559 1356 
Q 3559 666 3084 287 
Q 2609 -91 1734 -91 
Q 1441 -91 1130 -33 
Q 819 25 488 141 
L 488 750 
Q 750 597 1062 519 
Q 1375 441 1716 441 
Q 2309 441 2620 675 
Q 2931 909 2931 1356 
Q 2931 1769 2642 2001 
Q 2353 2234 1838 2234 
L 1294 2234 
L 1294 2753 
L 1863 2753 
Q 2328 2753 2575 2939 
Q 2822 3125 2822 3475 
Q 2822 3834 2567 4026 
Q 2313 4219 1838 4219 
Q 1578 4219 1281 4162 
Q 984 4106 628 3988 
L 628 4550 
Q 988 4650 1302 4700 
Q 1616 4750 1894 4750 
Q 2613 4750 3031 4423 
Q 3450 4097 3450 3541 
Q 3450 3153 3228 2886 
Q 3006 2619 2597 2516 
z
" transform="scale(0.015625)"/>
       </defs>
       <use xlink:href="#DejaVuSans-33"/>
      </g>
     </g>
    </g>
    <g id="xtick_5">
     <g id="line2d_9">
      <path d="M 462.961815 384.497812 
L 462.961815 24.397812 
" clip-path="url(#p726722ba3c)" style="fill: none; stroke: #b0b0b0; stroke-opacity: 0.3; stroke-width: 0.8; stroke-linecap: square"/>
     </g>
     <g id="line2d_10">
      <g>
       <use xlink:href="#m70dbacf71a" x="462.961815" y="384.497812" style="stroke: #000000; stroke-width: 0.8"/>
      </g>
     </g>
     <g id="text_5">
      <!-- 4 -->
      <g transform="translate(459.780565 399.09625) scale(0.1 -0.1)">
       <defs>
        <path id="DejaVuSans-34" d="M 2419 4116 
L 825 1625 
L 2419 1625 
L 2419 4116 
z
M 2253 4666 
L 3047 4666 
L 3047 1625 
L 3713 1625 
L 3713 1100 
L 3047 1100 
L 3047 0 
L 2419 0 
L 2419 1100 
L 313 1100 
L 313 1709 
L 2253 4666 
z
" transform="scale(0.015625)"/>
       </defs>
       <use xlink:href="#DejaVuSans-34"/>
      </g>
     </g>
    </g>
    <g id="xtick_6">
     <g id="line2d_11">
      <path d="M 556.25989 384.497812 
L 556.25989 24.397812 
" clip-path="url(#p726722ba3c)" style="fill: none; stroke: #b0b0b0; stroke-opacity: 0.3; stroke-width: 0.8; stroke-linecap: square"/>
     </g>
     <g id="line2d_12">
      <g>
       <use xlink:href="#m70dbacf71a" x="556.25989" y="384.497812" style="stroke: #000000; stroke-width: 0.8"/>
      </g>
     </g>
     <g id="text_6">
      <!-- 5 -->
      <g transform="translate(553.07864 399.09625) scale(0.1 -0.1)">
       <defs>
        <path id="DejaVuSans-35" d="M 691 4666 
L 3169 4666 
L 3169 4134 
L 1269 4134 
L 1269 2991 
Q 1406 3038 1543 3061 
Q 1681 3084 1819 3084 
Q 2600 3084 3056 2656 
Q 3513 2228 3513 1497 
Q 3513 744 3044 326 
Q 2575 -91 1722 -91 
Q 1428 -91 1123 -41 
Q 819 9 494 109 
L 494 744 
Q 775 591 1075 516 
Q 1375 441 1709 441 
Q 2250 441 2565 725 
Q 2881 1009 2881 1497 
Q 2881 1984 2565 2268 
Q 2250 2553 1709 2553 
Q 1456 2553 1204 2497 
Q 953 2441 691 2322 
L 691 4666 
z
" transform="scale(0.015625)"/>
       </defs>
       <use xlink:href="#DejaVuSans-35"/>
      </g>
     </g>
    </g>
    <g id="xtick_7">
     <g id="line2d_13">
      <path d="M 649.557964 384.497812 
L 649.557964 24.397812 
" clip-path="url(#p726722ba3c)" style="fill: none; stroke: #b0b0b0; stroke-opacity: 0.3; stroke-width: 0.8; stroke-linecap: square"/>
     </g>
     <g id="line2d_14">
      <g>
       <use xlink:href="#m70dbacf71a" x="649.557964" y="384.497812" style="stroke: #000000; stroke-width: 0.8"/>
      </g>
     </g>
     <g id="text_7">
      <!-- 6 -->
      <g transform="translate(646.376714 399.09625) scale(0.1 -0.1)">
       <defs>
        <path id="DejaVuSans-36" d="M 2113 2584 
Q 1688 2584 1439 2293 
Q 1191 2003 1191 1497 
Q 1191 994 1439 701 
Q 1688 409 2113 409 
Q 2538 409 2786 701 
Q 3034 994 3034 1497 
Q 3034 2003 2786 2293 
Q 2538 2584 2113 2584 
z
M 3366 4563 
L 3366 3988 
Q 3128 4100 2886 4159 
Q 2644 4219 2406 4219 
Q 1781 4219 1451 3797 
Q 1122 3375 1075 2522 
Q 1259 2794 1537 2939 
Q 1816 3084 2150 3084 
Q 2853 3084 3261 2657 
Q 3669 2231 3669 1497 
Q 3669 778 3244 343 
Q 2819 -91 2113 -91 
Q 1303 -91 875 529 
Q 447 1150 447 2328 
Q 447 3434 972 4092 
Q 1497 4750 2381 4750 
Q 2619 4750 2861 4703 
Q 3103 4656 3366 4563 
z
" transform="scale(0.015625)"/>
       </defs>
       <use xlink:href="#DejaVuSans-36"/>
      </g>
     </g>
    </g>
    <g id="text_8">
     <!-- x (radians) -->
     <g transform="translate(350.509688 414.294062) scale(0.12 -0.12)">
      <defs>
       <path id="DejaVuSans-78" d="M 3513 3500 
L 2247 1797 
L 3578 0 
L 2900 0 
L 1881 1375 
L 863 0 
L 184 0 
L 1544 1831 
L 300 3500 
L 978 3500 
L 1906 2253 
L 2834 3500 
L 3513 3500 
z
" transform="scale(0.015625)"/>
       <path id="DejaVuSans-20" transform="scale(0.015625)"/>
       <path id="DejaVuSans-28" d="M 1984 4856 
Q 1566 4138 1362 3434 
Q 1159 2731 1159 2009 
Q 1159 1288 1364 580 
Q 1569 -128 1984 -844 
L 1484 -844 
Q 1016 -109 783 600 
Q 550 1309 550 2009 
Q 550 2706 781 3412 
Q 1013 4119 1484 4856 
L 1984 4856 
z
" transform="scale(0.015625)"/>
       <path id="DejaVuSans-72" d="M 2631 2963 
Q 2534 3019 2420 3045 
Q 2306 3072 2169 3072 
Q 1681 3072 1420 2755 
Q 1159 2438 1159 1844 
L 1159 0 
L 581 0 
L 581 3500 
L 1159 3500 
L 1159 2956 
Q 1341 3275 1631 3429 
Q 1922 3584 2338 3584 
Q 2397 3584 2469 3576 
Q 2541 3569 2628 3553 
L 2631 2963 
z
" transform="scale(0.015625)"/>
       <path id="DejaVuSans-61" d="M 2194 1759 
Q 1497 1759 1228 1600 
Q 959 1441 959 1056 
Q 959 750 1161 570 
Q 1363 391 1709 391 
Q 2188 391 2477 730 
Q 2766 1069 2766 1631 
L 2766 1759 
L 2194 1759 
z
M 3341 1997 
L 3341 0 
L 2766 0 
L 2766 531 
Q 2569 213 2275 61 
Q 1981 -91 1556 -91 
Q 1019 -91 701 211 
Q 384 513 384 1019 
Q 384 1609 779 1909 
Q 1175 2209 1959 2209 
L 2766 2209 
L 2766 2266 
Q 2766 2663 2505 2880 
Q 2244 3097 1772 3097 
Q 1472 3097 1187 3025 
Q 903 2953 641 2809 
L 641 3341 
Q 956 3463 1253 3523 
Q 1550 3584 1831 3584 
Q 2591 3584 2966 3190 
Q 3341 2797 3341 1997 
z
" transform="scale(0.015625)"/>
       <path id="DejaVuSans-64" d="M 2906 2969 
L 2906 4863 
L 3481 4863 
L 3481 0 
L 2906 0 
L 2906 525 
Q 2725 213 2448 61 
Q 2172 -91 1784 -91 
Q 1150 -91 751 415 
Q 353 922 353 1747 
Q 353 2572 751 3078 
Q 1150 3584 1784 3584 
Q 2172 3584 2448 3432 
Q 2725 3281 2906 2969 
z
M 947 1747 
Q 947 1113 1208 752 
Q 1469 391 1925 391 
Q 2381 391 2643 752 
Q 2906 1113 2906 1747 
Q 2906 2381 2643 2742 
Q 2381 3103 1925 3103 
Q 1469 3103 1208 2742 
Q 947 2381 947 1747 
z
" transform="scale(0.015625)"/>
       <path id="DejaVuSans-69" d="M 603 3500 
L 1178 3500 
L 1178 0 
L 603 0 
L 603 3500 
z
M 603 4863 
L 1178 4863 
L 1178 4134 
L 603 4134 
L 603 4863 
z
" transform="scale(0.015625)"/>
       <path id="DejaVuSans-6e" d="M 3513 2113 
L 3513 0 
L 2938 0 
L 2938 2094 
Q 2938 2591 2744 2837 
Q 2550 3084 2163 3084 
Q 1697 3084 1428 2787 
Q 1159 2491 1159 1978 
L 1159 0 
L 581 0 
L 581 3500 
L 1159 3500 
L 1159 2956 
Q 1366 3272 1645 3428 
Q 1925 3584 2291 3584 
Q 2894 3584 3203 3211 
Q 3513 2838 3513 2113 
z
" transform="scale(0.015625)"/>
       <path id="DejaVuSans-73" d="M 2834 3397 
L 2834 2853 
Q 2591 2978 2328 3040 
Q 2066 3103 1784 3103 
Q 1356 3103 1142 2972 
Q 928 2841 928 2578 
Q 928 2378 1081 2264 
Q 1234 2150 1697 2047 
L 1894 2003 
Q 2506 1872 2764 1633 
Q 3022 1394 3022 966 
Q 3022 478 2636 193 
Q 2250 -91 1575 -91 
Q 1294 -91 989 -36 
Q 684 19 347 128 
L 347 722 
Q 666 556 975 473 
Q 1284 391 1588 391 
Q 1994 391 2212 530 
Q 2431 669 2431 922 
Q 2431 1156 2273 1281 
Q 2116 1406 1581 1522 
L 1381 1569 
Q 847 1681 609 1914 
Q 372 2147 372 2553 
Q 372 3047 722 3315 
Q 1072 3584 1716 3584 
Q 2034 3584 2315 3537 
Q 2597 3491 2834 3397 
z
" transform="scale(0.015625)"/>
       <path id="DejaVuSans-29" d="M 513 4856 
L 1013 4856 
Q 1481 4119 1714 3412 
Q 1947 2706 1947 2009 
Q 1947 1309 1714 600 
Q 1481 -109 1013 -844 
L 513 -844 
Q 928 -128 1133 580 
Q 1338 1288 1338 2009 
Q 1338 2731 1133 3434 
Q 928 4138 513 4856 
z
" transform="scale(0.015625)"/>
      </defs>
      <use xlink:href="#DejaVuSans-78"/>
      <use xlink:href="#DejaVuSans-20" transform="translate(59.179688 0)"/>
      <use xlink:href="#DejaVuSans-28" transform="translate(90.966797 0)"/>
      <use xlink:href="#DejaVuSans-72" transform="translate(129.980469 0)"/>
      <use xlink:href="#DejaVuSans-61" transform="translate(171.09375 0)"/>
      <use xlink:href="#DejaVuSans-64" transform="translate(232.373047 0)"/>
      <use xlink:href="#DejaVuSans-69" transform="translate(295.849609 0)"/>
      <use xlink:href="#DejaVuSans-61" transform="translate(323.632812 0)"/>
      <use xlink:href="#DejaVuSans-6e" transform="translate(384.912109 0)"/>
      <use xlink:href="#DejaVuSans-73" transform="translate(448.291016 0)"/>
      <use xlink:href="#DejaVuSans-29" transform="translate(500.390625 0)"/>
     </g>
    </g>
   </g>
   <g id="matplotlib.axis_2">
    <g id="ytick_1">
     <g id="line2d_15">
      <path d="M 60.459063 368.150235 
L 705.289062 368.150235 
" clip-path="url(#p726722ba3c)" style="fill: none; stroke: #b0b0b0; stroke-opacity: 0.3; stroke-width: 0.8; stroke-linecap: square"/>
     </g>
     <g id="line2d_16">
      <defs>
       <path id="m6eb4f49ec9" d="M 0 0 
L -3.5 0 
" style="stroke: #000000; stroke-width: 0.8"/>
      </defs>
      <g>
       <use xlink:href="#m6eb4f49ec9" x="60.459063" y="368.150235" style="stroke: #000000; stroke-width: 0.8"/>
      </g>
     </g>
     <g id="text_9">
      <!-- −1.00 -->
      <g transform="translate(22.81375 371.949454) scale(0.1 -0.1)">
       <defs>
        <path id="DejaVuSans-2212" d="M 678 2272 
L 4684 2272 
L 4684 1741 
L 678 1741 
L 678 2272 
z
" transform="scale(0.015625)"/>
        <path id="DejaVuSans-2e" d="M 684 794 
L 1344 794 
L 1344 0 
L 684 0 
L 684 794 
z
" transform="scale(0.015625)"/>
       </defs>
       <use xlink:href="#DejaVuSans-2212"/>
       <use xlink:href="#DejaVuSans-31" transform="translate(83.789062 0)"/>
       <use xlink:href="#DejaVuSans-2e" transform="translate(147.412109 0)"/>
       <use xlink:href="#DejaVuSans-30" transform="translate(179.199219 0)"/>
       <use xlink:href="#DejaVuSans-30" transform="translate(242.822266 0)"/>
      </g>
     </g>
    </g>
    <g id="ytick_2">
     <g id="line2d_17">
      <path d="M 60.459063 327.227205 
L 705.289062 327.227205 
" clip-path="url(#p726722ba3c)" style="fill: none; stroke: #b0b0b0; stroke-opacity: 0.3; stroke-width: 0.8; stroke-linecap: square"/>
     </g>
     <g id="line2d_18">
      <g>
       <use xlink:href="#m6eb4f49ec9" x="60.459063" y="327.227205" style="stroke: #000000; stroke-width: 0.8"/>
      </g>
     </g>
     <g id="text_10">
      <!-- −0.75 -->
      <g transform="translate(22.81375 331.026424) scale(0.1 -0.1)">
       <defs>
        <path id="DejaVuSans-37" d="M 525 4666 
L 3525 4666 
L 3525 4397 
L 1831 0 
L 1172 0 
L 2766 4134 
L 525 4134 
L 525 4666 
z
" transform="scale(0.015625)"/>
       </defs>
       <use xlink:href="#DejaVuSans-2212"/>
       <use xlink:href="#DejaVuSans-30" transform="translate(83.789062 0)"/>
       <use xlink:href="#DejaVuSans-2e" transform="translate(147.412109 0)"/>
       <use xlink:href="#DejaVuSans-37" transform="translate(179.199219 0)"/>
       <use xlink:href="#DejaVuSans-35" transform="translate(242.822266 0)"/>
      </g>
     </g>
    </g>
    <g id="ytick_3">
     <g id="line2d_19">
      <path d="M 60.459063 286.304175 
L 705.289062 286.304175 
" clip-path="url(#p726722ba3c)" style="fill: none; stroke: #b0b0b0; stroke-opacity: 0.3; stroke-width: 0.8; stroke-linecap: square"/>
     </g>
     <g id="line2d_20">
      <g>
       <use xlink:href="#m6eb4f49ec9" x="60.459063" y="286.304175" style="stroke: #000000; stroke-width: 0.8"/>
      </g>
     </g>
     <g id="text_11">
      <!-- −0.50 -->
      <g transform="translate(22.81375 290.103394) scale(0.1 -0.1)">
       <use xlink:href="#DejaVuSans-2212"/>
       <use xlink:href="#DejaVuSans-30" transform="translate(83.789062 0)"/>
       <use xlink:href="#DejaVuSans-2e" transform="translate(147.412109 0)"/>
       <use xlink:href="#DejaVuSans-35" transform="translate(179.199219 0)"/>
       <use xlink:href="#DejaVuSans-30" transform="translate(242.822266 0)"/>
      </g>
     </g>
    </g>
    <g id="ytick_4">
     <g id="line2d_21">
      <path d="M 60.459063 245.381145 
L 705.289062 245.381145 
" clip-path="url(#p726722ba3c)" style="fill: none; stroke: #b0b0b0; stroke-opacity: 0.3; stroke-width: 0.8; stroke-linecap: square"/>
     </g>
     <g id="line2d_22">
      <g>
       <use xlink:href="#m6eb4f49ec9" x="60.459063" y="245.381145" style="stroke: #000000; stroke-width: 0.8"/>
      </g>
     </g>
     <g id="text_12">
      <!-- −0.25 -->
      <g transform="translate(22.81375 249.180363) scale(0.1 -0.1)">
       <use xlink:href="#DejaVuSans-2212"/>
       <use xlink:href="#DejaVuSans-30" transform="translate(83.789062 0)"/>
       <use xlink:href="#DejaVuSans-2e" transform="translate(147.412109 0)"/>
       <use xlink:href="#DejaVuSans-32" transform="translate(179.199219 0)"/>
       <use xlink:href="#DejaVuSans-35" transform="translate(242.822266 0)"/>
      </g>
     </g>
    </g>
    <g id="ytick_5">
     <g id="line2d_23">
      <path d="M 60.459063 204.458115 
L 705.289062 204.458115 
" clip-path="url(#p726722ba3c)" style="fill: none; stroke: #b0b0b0; stroke-opacity: 0.3; stroke-width: 0.8; stroke-linecap: square"/>
     </g>
     <g id="line2d_24">
      <g>
       <use xlink:href="#m6eb4f49ec9" x="60.459063" y="204.458115" style="stroke: #000000; stroke-width: 0.8"/>
      </g>
     </g>
     <g id="text_13">
      <!-- 0.00 -->
      <g transform="translate(31.193438 208.257333) scale(0.1 -0.1)">
       <use xlink:href="#DejaVuSans-30"/>
       <use xlink:href="#DejaVuSans-2e" transform="translate(63.623047 0)"/>
       <use xlink:href="#DejaVuSans-30" transform="translate(95.410156 0)"/>
       <use xlink:href="#DejaVuSans-30" transform="translate(159.033203 0)"/>
      </g>
     </g>
    </g>
    <g id="ytick_6">
     <g id="line2d_25">
      <path d="M 60.459063 163.535085 
L 705.289062 163.535085 
" clip-path="url(#p726722ba3c)" style="fill: none; stroke: #b0b0b0; stroke-opacity: 0.3; stroke-width: 0.8; stroke-linecap: square"/>
     </g>
     <g id="line2d_26">
      <g>
       <use xlink:href="#m6eb4f49ec9" x="60.459063" y="163.535085" style="stroke: #000000; stroke-width: 0.8"/>
      </g>
     </g>
     <g id="text_14">
      <!-- 0.25 -->
      <g transform="translate(31.193438 167.334303) scale(0.1 -0.1)">
       <use xlink:href="#DejaVuSans-30"/>
       <use xlink:href="#DejaVuSans-2e" transform="translate(63.623047 0)"/>
       <use xlink:href="#DejaVuSans-32" transform="translate(95.410156 0)"/>
       <use xlink:href="#DejaVuSans-35" transform="translate(159.033203 0)"/>
      </g>
     </g>
    </g>
    <g id="ytick_7">
     <g id="line2d_27">
      <path d="M 60.459063 122.612054 
L 705.289062 122.612054 
" clip-path="url(#p726722ba3c)" style="fill: none; stroke: #b0b0b0; stroke-opacity: 0.3; stroke-width: 0.8; stroke-linecap: square"/>
     </g>
     <g id="line2d_28">
      <g>
       <use xlink:href="#m6eb4f49ec9" x="60.459063" y="122.612054" style="stroke: #000000; stroke-width: 0.8"/>
      </g>
     </g>
     <g id="text_15">
      <!-- 0.50 -->
      <g transform="translate(31.193438 126.411273) scale(0.1 -0.1)">
       <use xlink:href="#DejaVuSans-30"/>
       <use xlink:href="#DejaVuSans-2e" transform="translate(63.623047 0)"/>
       <use xlink:href="#DejaVuSans-35" transform="translate(95.410156 0)"/>
       <use xlink:href="#DejaVuSans-30" transform="translate(159.033203 0)"/>
      </g>
     </g>
    </g>
    <g id="ytick_8">
     <g id="line2d_29">
      <path d="M 60.459063 81.689024 
L 705.289062 81.689024 
" clip-path="url(#p726722ba3c)" style="fill: none; stroke: #b0b0b0; stroke-opacity: 0.3; stroke-width: 0.8; stroke-linecap: square"/>
     </g>
     <g id="line2d_30">
      <g>
       <use xlink:href="#m6eb4f49ec9" x="60.459063" y="81.689024" style="stroke: #000000; stroke-width: 0.8"/>
      </g>
     </g>
     <g id="text_16">
      <!-- 0.75 -->
      <g transform="translate(31.193438 85.488243) scale(0.1 -0.1)">
       <use xlink:href="#DejaVuSans-30"/>
       <use xlink:href="#DejaVuSans-2e" transform="translate(63.623047 0)"/>
       <use xlink:href="#DejaVuSans-37" transform="translate(95.410156 0)"/>
       <use xlink:href="#DejaVuSans-35" transform="translate(159.033203 0)"/>
      </g>
     </g>
    </g>
    <g id="ytick_9">
     <g id="line2d_31">
      <path d="M 60.459063 40.765994 
L 705.289062 40.765994 
" clip-path="url(#p726722ba3c)" style="fill: none; stroke: #b0b0b0; stroke-opacity: 0.3; stroke-width: 0.8; stroke-linecap: square"/>
     </g>
     <g id="line2d_32">
      <g>
       <use xlink:href="#m6eb4f49ec9" x="60.459063" y="40.765994" style="stroke: #000000; stroke-width: 0.8"/>
      </g>
     </g>
     <g id="text_17">
      <!-- 1.00 -->
      <g transform="translate(31.193438 44.565213) scale(0.1 -0.1)">
       <use xlink:href="#DejaVuSans-31"/>
       <use xlink:href="#DejaVuSans-2e" transform="translate(63.623047 0)"/>
       <use xlink:href="#DejaVuSans-30" transform="translate(95.410156 0)"/>
       <use xlink:href="#DejaVuSans-30" transform="translate(159.033203 0)"/>
      </g>
     </g>
    </g>
    <g id="text_18">
     <!-- y -->
     <g transform="translate(16.318125 207.999062) rotate(-90) scale(0.12 -0.12)">
      <defs>
       <path id="DejaVuSans-79" d="M 2059 -325 
Q 1816 -950 1584 -1140 
Q 1353 -1331 966 -1331 
L 506 -1331 
L 506 -850 
L 844 -850 
Q 1081 -850 1212 -737 
Q 1344 -625 1503 -206 
L 1606 56 
L 191 3500 
L 800 3500 
L 1894 763 
L 2988 3500 
L 3597 3500 
L 2059 -325 
z
" transform="scale(0.015625)"/>
      </defs>
      <use xlink:href="#DejaVuSans-79"/>
     </g>
    </g>
   </g>
   <g id="line2d_33">
    <path d="M 89.769517 204.458115 
L 95.690821 194.076119 
L 101.612125 183.735928 
L 107.533429 173.479177 
L 113.454733 163.347168 
L 119.376037 153.380698 
L 125.297341 143.619899 
L 131.218645 134.104074 
L 137.139949 124.87154 
L 143.061253 115.959473 
L 148.982557 107.403759 
L 154.90386 99.238848 
L 160.825164 91.497618 
L 166.746468 84.21124 
L 172.667772 77.409054 
L 178.589076 71.11845 
L 184.51038 65.364757 
L 190.431684 60.171145 
L 196.352988 55.558525 
L 202.274292 51.545471 
L 208.195596 48.148142 
L 214.1169 45.380218 
L 220.038204 43.252845 
L 225.959508 41.774589 
L 231.880812 40.951402 
L 237.802116 40.786599 
L 243.72342 41.280843 
L 249.644724 42.432144 
L 255.566028 44.235867 
L 261.487332 46.684748 
L 267.408636 49.768927 
L 273.329939 53.475985 
L 279.251243 57.790994 
L 285.172547 62.69658 
L 291.093851 68.17299 
L 297.015155 74.198172 
L 302.936459 80.747864 
L 308.857763 87.795695 
L 314.779067 95.313283 
L 320.700371 103.270359 
L 326.621675 111.634883 
L 332.542979 120.373173 
L 338.464283 129.450044 
L 344.385587 138.828945 
L 350.306891 148.472112 
L 356.228195 158.340715 
L 362.149499 168.395016 
L 368.070803 178.594531 
L 373.992107 188.898189 
L 379.913411 199.264502 
L 385.834714 209.651727 
L 391.756018 220.01804 
L 397.677322 230.321698 
L 403.598626 240.521213 
L 409.51993 250.575514 
L 415.441234 260.444117 
L 421.362538 270.087284 
L 427.283842 279.466186 
L 433.205146 288.543056 
L 439.12645 297.281346 
L 445.047754 305.64587 
L 450.969058 313.602946 
L 456.890362 321.120535 
L 462.811666 328.168365 
L 468.73297 334.718058 
L 474.654274 340.743239 
L 480.575578 346.219649 
L 486.496882 351.125235 
L 492.418186 355.440245 
L 498.339489 359.147302 
L 504.260793 362.231481 
L 510.182097 364.680362 
L 516.103401 366.484085 
L 522.024705 367.635387 
L 527.946009 368.129631 
L 533.867313 367.964827 
L 539.788617 367.14164 
L 545.709921 365.663384 
L 551.631225 363.536011 
L 557.552529 360.768087 
L 563.473833 357.370759 
L 569.395137 353.357705 
L 575.316441 348.745085 
L 581.237745 343.551472 
L 587.159049 337.797779 
L 593.080353 331.507175 
L 599.001657 324.704989 
L 604.922961 317.418611 
L 610.844265 309.677381 
L 616.765568 301.512471 
L 622.686872 292.956756 
L 628.608176 284.044689 
L 634.52948 274.812155 
L 640.450784 265.29633 
L 646.372088 255.535531 
L 652.293392 245.569061 
L 658.214696 235.437052 
L 664.136 225.180302 
L 670.057304 214.840111 
L 675.978608 204.458115 
" clip-path="url(#p726722ba3c)" style="fill: none; stroke: #0000ff; stroke-width: 2; stroke-linecap: square"/>
   </g>
   <g id="line2d_34">
    <path d="M 89.769517 40.765994 
L 95.690821 41.09556 
L 101.612125 42.082928 
L 107.533429 43.724124 
L 113.454733 46.012539 
L 119.376037 48.938959 
L 125.297341 52.491599 
L 131.218645 56.656155 
L 137.139949 61.415857 
L 143.061253 66.75154 
L 148.982557 72.641719 
L 154.90386 79.062675 
L 160.825164 85.988555 
L 166.746468 93.39147 
L 172.667772 101.241612 
L 178.589076 109.507369 
L 184.51038 118.15546 
L 190.431684 127.151061 
L 196.352988 136.45795 
L 202.274292 146.038652 
L 208.195596 155.854589 
L 214.1169 165.866235 
L 220.038204 176.033276 
L 225.959508 186.314775 
L 231.880812 196.66933 
L 237.802116 207.055248 
L 243.72342 217.430708 
L 249.644724 227.753932 
L 255.566028 237.983352 
L 261.487332 248.077778 
L 267.408636 257.996563 
L 273.329939 267.699767 
L 279.251243 277.14832 
L 285.172547 286.304175 
L 291.093851 295.130464 
L 297.015155 303.591648 
L 302.936459 311.653657 
L 308.857763 319.284026 
L 314.779067 326.452033 
L 320.700371 333.128812 
L 326.621675 339.287481 
L 332.542979 344.903239 
L 338.464283 349.953474 
L 344.385587 354.417851 
L 350.306891 358.278392 
L 356.228195 361.519554 
L 362.149499 364.128285 
L 368.070803 366.09408 
L 373.992107 367.409024 
L 379.913411 368.067823 
L 385.834714 368.067823 
L 391.756018 367.409024 
L 397.677322 366.09408 
L 403.598626 364.128285 
L 409.51993 361.519554 
L 415.441234 358.278392 
L 421.362538 354.417851 
L 427.283842 349.953474 
L 433.205146 344.903239 
L 439.12645 339.287481 
L 445.047754 333.128812 
L 450.969058 326.452033 
L 456.890362 319.284026 
L 462.811666 311.653657 
L 468.73297 303.591648 
L 474.654274 295.130464 
L 480.575578 286.304175 
L 486.496882 277.14832 
L 492.418186 267.699767 
L 498.339489 257.996563 
L 504.260793 248.077778 
L 510.182097 237.983352 
L 516.103401 227.753932 
L 522.024705 217.430708 
L 527.946009 207.055248 
L 533.867313 196.66933 
L 539.788617 186.314775 
L 545.709921 176.033276 
L 551.631225 165.866235 
L 557.552529 155.854589 
L 563.473833 146.038652 
L 569.395137 136.45795 
L 575.316441 127.151061 
L 581.237745 118.15546 
L 587.159049 109.507369 
L 593.080353 101.241612 
L 599.001657 93.39147 
L 604.922961 85.988555 
L 610.844265 79.062675 
L 616.765568 72.641719 
L 622.686872 66.75154 
L 628.608176 61.415857 
L 634.52948 56.656155 
L 640.450784 52.491599 
L 646.372088 48.938959 
L 652.293392 46.012539 
L 658.214696 43.724124 
L 664.136 42.082928 
L 670.057304 41.09556 
L 675.978608 40.765994 
" clip-path="url(#p726722ba3c)" style="fill: none; stroke-dasharray: 7.4,3.2; stroke-dashoffset: 0; stroke: #ff0000; stroke-width: 2"/>
   </g>
   <g id="line2d_35">
    <path d="M 60.459063 204.458115 
L 705.289062 204.458115 
" clip-path="url(#p726722ba3c)" style="fill: none; stroke: #000000; stroke-width: 0.5; stroke-linecap: square"/>
   </g>
   <g id="line2d_36">
    <path d="M 89.769517 384.497812 
L 89.769517 24.397812 
" clip-path="url(#p726722ba3c)" style="fill: none; stroke: #000000; stroke-width: 0.5; stroke-linecap: square"/>
   </g>
   <g id="patch_3">
    <path d="M 60.459063 384.497812 
L 60.459063 24.397812 
" style="fill: none; stroke: #000000; stroke-width: 0.8; stroke-linejoin: miter; stroke-linecap: square"/>
   </g>
   <g id="patch_4">
    <path d="M 705.289062 384.497812 
L 705.289062 24.397812 
" style="fill: none; stroke: #000000; stroke-width: 0.8; stroke-linejoin: miter; stroke-linecap: square"/>
   </g>
   <g id="patch_5">
    <path d="M 60.459063 384.497812 
L 705.289062 384.497812 
" style="fill: none; stroke: #000000; stroke-width: 0.8; stroke-linejoin: miter; stroke-linecap: square"/>
   </g>
   <g id="patch_6">
    <path d="M 60.459063 24.397812 
L 705.289062 24.397812 
" style="fill: none; stroke: #000000; stroke-width: 0.8; stroke-linejoin: miter; stroke-linecap: square"/>
   </g>
   <g id="text_19">
    <!-- Funcions trigonomètriques -->
    <g transform="translate(276.574688 18.397812) scale(0.14 -0.14)">
     <defs>
      <path id="DejaVuSans-Bold-46" d="M 588 4666 
L 3834 4666 
L 3834 3756 
L 1791 3756 
L 1791 2888 
L 3713 2888 
L 3713 1978 
L 1791 1978 
L 1791 0 
L 588 0 
L 588 4666 
z
" transform="scale(0.015625)"/>
      <path id="DejaVuSans-Bold-75" d="M 500 1363 
L 500 3500 
L 1625 3500 
L 1625 3150 
Q 1625 2866 1622 2436 
Q 1619 2006 1619 1863 
Q 1619 1441 1641 1255 
Q 1663 1069 1716 984 
Q 1784 875 1895 815 
Q 2006 756 2150 756 
Q 2500 756 2700 1025 
Q 2900 1294 2900 1772 
L 2900 3500 
L 4019 3500 
L 4019 0 
L 2900 0 
L 2900 506 
Q 2647 200 2364 54 
Q 2081 -91 1741 -91 
Q 1134 -91 817 281 
Q 500 653 500 1363 
z
" transform="scale(0.015625)"/>
      <path id="DejaVuSans-Bold-6e" d="M 4056 2131 
L 4056 0 
L 2931 0 
L 2931 347 
L 2931 1631 
Q 2931 2084 2911 2256 
Q 2891 2428 2841 2509 
Q 2775 2619 2662 2680 
Q 2550 2741 2406 2741 
Q 2056 2741 1856 2470 
Q 1656 2200 1656 1722 
L 1656 0 
L 538 0 
L 538 3500 
L 1656 3500 
L 1656 2988 
Q 1909 3294 2193 3439 
Q 2478 3584 2822 3584 
Q 3428 3584 3742 3212 
Q 4056 2841 4056 2131 
z
" transform="scale(0.015625)"/>
      <path id="DejaVuSans-Bold-63" d="M 3366 3391 
L 3366 2478 
Q 3138 2634 2908 2709 
Q 2678 2784 2431 2784 
Q 1963 2784 1702 2511 
Q 1441 2238 1441 1747 
Q 1441 1256 1702 982 
Q 1963 709 2431 709 
Q 2694 709 2930 787 
Q 3166 866 3366 1019 
L 3366 103 
Q 3103 6 2833 -42 
Q 2563 -91 2291 -91 
Q 1344 -91 809 395 
Q 275 881 275 1747 
Q 275 2613 809 3098 
Q 1344 3584 2291 3584 
Q 2566 3584 2833 3536 
Q 3100 3488 3366 3391 
z
" transform="scale(0.015625)"/>
      <path id="DejaVuSans-Bold-69" d="M 538 3500 
L 1656 3500 
L 1656 0 
L 538 0 
L 538 3500 
z
M 538 4863 
L 1656 4863 
L 1656 3950 
L 538 3950 
L 538 4863 
z
" transform="scale(0.015625)"/>
      <path id="DejaVuSans-Bold-6f" d="M 2203 2784 
Q 1831 2784 1636 2517 
Q 1441 2250 1441 1747 
Q 1441 1244 1636 976 
Q 1831 709 2203 709 
Q 2569 709 2762 976 
Q 2956 1244 2956 1747 
Q 2956 2250 2762 2517 
Q 2569 2784 2203 2784 
z
M 2203 3584 
Q 3106 3584 3614 3096 
Q 4122 2609 4122 1747 
Q 4122 884 3614 396 
Q 3106 -91 2203 -91 
Q 1297 -91 786 396 
Q 275 884 275 1747 
Q 275 2609 786 3096 
Q 1297 3584 2203 3584 
z
" transform="scale(0.015625)"/>
      <path id="DejaVuSans-Bold-73" d="M 3272 3391 
L 3272 2541 
Q 2913 2691 2578 2766 
Q 2244 2841 1947 2841 
Q 1628 2841 1473 2761 
Q 1319 2681 1319 2516 
Q 1319 2381 1436 2309 
Q 1553 2238 1856 2203 
L 2053 2175 
Q 2913 2066 3209 1816 
Q 3506 1566 3506 1031 
Q 3506 472 3093 190 
Q 2681 -91 1863 -91 
Q 1516 -91 1145 -36 
Q 775 19 384 128 
L 384 978 
Q 719 816 1070 734 
Q 1422 653 1784 653 
Q 2113 653 2278 743 
Q 2444 834 2444 1013 
Q 2444 1163 2330 1236 
Q 2216 1309 1875 1350 
L 1678 1375 
Q 931 1469 631 1722 
Q 331 1975 331 2491 
Q 331 3047 712 3315 
Q 1094 3584 1881 3584 
Q 2191 3584 2531 3537 
Q 2872 3491 3272 3391 
z
" transform="scale(0.015625)"/>
      <path id="DejaVuSans-Bold-20" transform="scale(0.015625)"/>
      <path id="DejaVuSans-Bold-74" d="M 1759 4494 
L 1759 3500 
L 2913 3500 
L 2913 2700 
L 1759 2700 
L 1759 1216 
Q 1759 972 1856 886 
Q 1953 800 2241 800 
L 2816 800 
L 2816 0 
L 1856 0 
Q 1194 0 917 276 
Q 641 553 641 1216 
L 641 2700 
L 84 2700 
L 84 3500 
L 641 3500 
L 641 4494 
L 1759 4494 
z
" transform="scale(0.015625)"/>
      <path id="DejaVuSans-Bold-72" d="M 3138 2547 
Q 2991 2616 2845 2648 
Q 2700 2681 2553 2681 
Q 2122 2681 1889 2404 
Q 1656 2128 1656 1613 
L 1656 0 
L 538 0 
L 538 3500 
L 1656 3500 
L 1656 2925 
Q 1872 3269 2151 3426 
Q 2431 3584 2822 3584 
Q 2878 3584 2943 3579 
Q 3009 3575 3134 3559 
L 3138 2547 
z
" transform="scale(0.015625)"/>
      <path id="DejaVuSans-Bold-67" d="M 2919 594 
Q 2688 288 2409 144 
Q 2131 0 1766 0 
Q 1125 0 706 504 
Q 288 1009 288 1791 
Q 288 2575 706 3076 
Q 1125 3578 1766 3578 
Q 2131 3578 2409 3434 
Q 2688 3291 2919 2981 
L 2919 3500 
L 4044 3500 
L 4044 353 
Q 4044 -491 3511 -936 
Q 2978 -1381 1966 -1381 
Q 1638 -1381 1331 -1331 
Q 1025 -1281 716 -1178 
L 716 -306 
Q 1009 -475 1290 -558 
Q 1572 -641 1856 -641 
Q 2406 -641 2662 -400 
Q 2919 -159 2919 353 
L 2919 594 
z
M 2181 2772 
Q 1834 2772 1640 2515 
Q 1447 2259 1447 1791 
Q 1447 1309 1634 1061 
Q 1822 813 2181 813 
Q 2531 813 2725 1069 
Q 2919 1325 2919 1791 
Q 2919 2259 2725 2515 
Q 2531 2772 2181 2772 
z
" transform="scale(0.015625)"/>
      <path id="DejaVuSans-Bold-6d" d="M 3781 2919 
Q 3994 3244 4286 3414 
Q 4578 3584 4928 3584 
Q 5531 3584 5847 3212 
Q 6163 2841 6163 2131 
L 6163 0 
L 5038 0 
L 5038 1825 
Q 5041 1866 5042 1909 
Q 5044 1953 5044 2034 
Q 5044 2406 4934 2573 
Q 4825 2741 4581 2741 
Q 4263 2741 4089 2478 
Q 3916 2216 3909 1719 
L 3909 0 
L 2784 0 
L 2784 1825 
Q 2784 2406 2684 2573 
Q 2584 2741 2328 2741 
Q 2006 2741 1831 2477 
Q 1656 2213 1656 1722 
L 1656 0 
L 531 0 
L 531 3500 
L 1656 3500 
L 1656 2988 
Q 1863 3284 2130 3434 
Q 2397 3584 2719 3584 
Q 3081 3584 3359 3409 
Q 3638 3234 3781 2919 
z
" transform="scale(0.015625)"/>
      <path id="DejaVuSans-Bold-e8" d="M 4031 1759 
L 4031 1441 
L 1416 1441 
Q 1456 1047 1700 850 
Q 1944 653 2381 653 
Q 2734 653 3104 758 
Q 3475 863 3866 1075 
L 3866 213 
Q 3469 63 3072 -14 
Q 2675 -91 2278 -91 
Q 1328 -91 801 392 
Q 275 875 275 1747 
Q 275 2603 792 3093 
Q 1309 3584 2216 3584 
Q 3041 3584 3536 3087 
Q 4031 2591 4031 1759 
z
M 2881 2131 
Q 2881 2450 2695 2645 
Q 2509 2841 2209 2841 
Q 1884 2841 1681 2658 
Q 1478 2475 1428 2131 
L 2881 2131 
z
M 1858 5119 
L 2739 3944 
L 2127 3944 
L 974 5119 
L 1858 5119 
z
" transform="scale(0.015625)"/>
      <path id="DejaVuSans-Bold-71" d="M 2181 2772 
Q 1825 2772 1636 2509 
Q 1447 2247 1447 1747 
Q 1447 1247 1636 984 
Q 1825 722 2181 722 
Q 2541 722 2730 984 
Q 2919 1247 2919 1747 
Q 2919 2247 2730 2509 
Q 2541 2772 2181 2772 
z
M 2919 506 
Q 2688 197 2409 53 
Q 2131 -91 1766 -91 
Q 1119 -91 703 423 
Q 288 938 288 1747 
Q 288 2556 703 3067 
Q 1119 3578 1766 3578 
Q 2131 3578 2409 3434 
Q 2688 3291 2919 2981 
L 2919 3500 
L 4044 3500 
L 4044 -1331 
L 2919 -1331 
L 2919 506 
z
" transform="scale(0.015625)"/>
      <path id="DejaVuSans-Bold-65" d="M 4031 1759 
L 4031 1441 
L 1416 1441 
Q 1456 1047 1700 850 
Q 1944 653 2381 653 
Q 2734 653 3104 758 
Q 3475 863 3866 1075 
L 3866 213 
Q 3469 63 3072 -14 
Q 2675 -91 2278 -91 
Q 1328 -91 801 392 
Q 275 875 275 1747 
Q 275 2603 792 3093 
Q 1309 3584 2216 3584 
Q 3041 3584 3536 3087 
Q 4031 2591 4031 1759 
z
M 2881 2131 
Q 2881 2450 2695 2645 
Q 2509 2841 2209 2841 
Q 1884 2841 1681 2658 
Q 1478 2475 1428 2131 
L 2881 2131 
z
" transform="scale(0.015625)"/>
     </defs>
     <use xlink:href="#DejaVuSans-Bold-46"/>
     <use xlink:href="#DejaVuSans-Bold-75" transform="translate(63.310547 0)"/>
     <use xlink:href="#DejaVuSans-Bold-6e" transform="translate(134.501953 0)"/>
     <use xlink:href="#DejaVuSans-Bold-63" transform="translate(205.693359 0)"/>
     <use xlink:href="#DejaVuSans-Bold-69" transform="translate(264.970703 0)"/>
     <use xlink:href="#DejaVuSans-Bold-6f" transform="translate(299.248047 0)"/>
     <use xlink:href="#DejaVuSans-Bold-6e" transform="translate(367.949219 0)"/>
     <use xlink:href="#DejaVuSans-Bold-73" transform="translate(439.140625 0)"/>
     <use xlink:href="#DejaVuSans-Bold-20" transform="translate(498.662109 0)"/>
     <use xlink:href="#DejaVuSans-Bold-74" transform="translate(533.476562 0)"/>
     <use xlink:href="#DejaVuSans-Bold-72" transform="translate(581.279297 0)"/>
     <use xlink:href="#DejaVuSans-Bold-69" transform="translate(630.595703 0)"/>
     <use xlink:href="#DejaVuSans-Bold-67" transform="translate(664.873047 0)"/>
     <use xlink:href="#DejaVuSans-Bold-6f" transform="translate(736.455078 0)"/>
     <use xlink:href="#DejaVuSans-Bold-6e" transform="translate(805.15625 0)"/>
     <use xlink:href="#DejaVuSans-Bold-6f" transform="translate(876.347656 0)"/>
     <use xlink:href="#DejaVuSans-Bold-6d" transform="translate(945.048828 0)"/>
     <use xlink:href="#DejaVuSans-Bold-e8" transform="translate(1049.248047 0)"/>
     <use xlink:href="#DejaVuSans-Bold-74" transform="translate(1117.070312 0)"/>
     <use xlink:href="#DejaVuSans-Bold-72" transform="translate(1164.873047 0)"/>
     <use xlink:href="#DejaVuSans-Bold-69" transform="translate(1214.189453 0)"/>
     <use xlink:href="#DejaVuSans-Bold-71" transform="translate(1248.466797 0)"/>
     <use xlink:href="#DejaVuSans-Bold-75" transform="translate(1320.048828 0)"/>
     <use xlink:href="#DejaVuSans-Bold-65" transform="translate(1391.240234 0)"/>
     <use xlink:href="#DejaVuSans-Bold-73" transform="translate(1459.0625 0)"/>
    </g>
   </g>
   <g id="legend_1">
    <g id="patch_7">
     <path d="M 635.740625 61.754062 
L 698.289062 61.754062 
Q 700.289062 61.754062 700.289062 59.754062 
L 700.289062 31.397812 
Q 700.289062 29.397812 698.289062 29.397812 
L 635.740625 29.397812 
Q 633.740625 29.397812 633.740625 31.397812 
L 633.740625 59.754062 
Q 633.740625 61.754062 635.740625 61.754062 
z
" style="fill: #ffffff; opacity: 0.8; stroke: #cccccc; stroke-linejoin: miter"/>
    </g>
    <g id="line2d_37">
     <path d="M 637.740625 37.49625 
L 647.740625 37.49625 
L 657.740625 37.49625 
" style="fill: none; stroke: #0000ff; stroke-width: 2; stroke-linecap: square"/>
    </g>
    <g id="text_20">
     <!-- sin(x) -->
     <g transform="translate(665.740625 40.99625) scale(0.1 -0.1)">
      <use xlink:href="#DejaVuSans-73"/>
      <use xlink:href="#DejaVuSans-69" transform="translate(52.099609 0)"/>
      <use xlink:href="#DejaVuSans-6e" transform="translate(79.882812 0)"/>
      <use xlink:href="#DejaVuSans-28" transform="translate(143.261719 0)"/>
      <use xlink:href="#DejaVuSans-78" transform="translate(182.275391 0)"/>
      <use xlink:href="#DejaVuSans-29" transform="translate(241.455078 0)"/>
     </g>
    </g>
    <g id="line2d_38">
     <path d="M 637.740625 52.174375 
L 647.740625 52.174375 
L 657.740625 52.174375 
" style="fill: none; stroke-dasharray: 7.4,3.2; stroke-dashoffset: 0; stroke: #ff0000; stroke-width: 2"/>
    </g>
    <g id="text_21">
     <!-- cos(x) -->
     <g transform="translate(665.740625 55.674375) scale(0.1 -0.1)">
      <defs>
       <path id="DejaVuSans-63" d="M 3122 3366 
L 3122 2828 
Q 2878 2963 2633 3030 
Q 2388 3097 2138 3097 
Q 1578 3097 1268 2742 
Q 959 2388 959 1747 
Q 959 1106 1268 751 
Q 1578 397 2138 397 
Q 2388 397 2633 464 
Q 2878 531 3122 666 
L 3122 134 
Q 2881 22 2623 -34 
Q 2366 -91 2075 -91 
Q 1284 -91 818 406 
Q 353 903 353 1747 
Q 353 2603 823 3093 
Q 1294 3584 2113 3584 
Q 2378 3584 2631 3529 
Q 2884 3475 3122 3366 
z
" transform="scale(0.015625)"/>
       <path id="DejaVuSans-6f" d="M 1959 3097 
Q 1497 3097 1228 2736 
Q 959 2375 959 1747 
Q 959 1119 1226 758 
Q 1494 397 1959 397 
Q 2419 397 2687 759 
Q 2956 1122 2956 1747 
Q 2956 2369 2687 2733 
Q 2419 3097 1959 3097 
z
M 1959 3584 
Q 2709 3584 3137 3096 
Q 3566 2609 3566 1747 
Q 3566 888 3137 398 
Q 2709 -91 1959 -91 
Q 1206 -91 779 398 
Q 353 888 353 1747 
Q 353 2609 779 3096 
Q 1206 3584 1959 3584 
z
" transform="scale(0.015625)"/>
      </defs>
      <use xlink:href="#DejaVuSans-63"/>
      <use xlink:href="#DejaVuSans-6f" transform="translate(54.980469 0)"/>
      <use xlink:href="#DejaVuSans-73" transform="translate(116.162109 0)"/>
      <use xlink:href="#DejaVuSans-28" transform="translate(168.261719 0)"/>
      <use xlink:href="#DejaVuSans-78" transform="translate(207.275391 0)"/>
      <use xlink:href="#DejaVuSans-29" transform="translate(266.455078 0)"/>
     </g>
    </g>
   </g>
  </g>
 </g>
 <defs>
  <clipPath id="p726722ba3c">
   <rect x="60.459063" y="24.397812" width="644.83" height="360.1"/>
  </clipPath>
 </defs>
</svg>
