<?xml version="1.0" encoding="utf-8" standalone="no"?>
<!DOCTYPE svg PUBLIC "-//W3C//DTD SVG 1.1//EN"
  "http://www.w3.org/Graphics/SVG/1.1/DTD/svg11.dtd">
<svg xmlns:xlink="http://www.w3.org/1999/xlink" width="406.940313pt" height="310.86825pt" viewBox="0 0 406.940313 310.86825" xmlns="http://www.w3.org/2000/svg" version="1.1">
 <metadata>
  <rdf:RDF xmlns:dc="http://purl.org/dc/elements/1.1/" xmlns:cc="http://creativecommons.org/ns#" xmlns:rdf="http://www.w3.org/1999/02/22-rdf-syntax-ns#">
   <cc:Work>
    <dc:type rdf:resource="http://purl.org/dc/dcmitype/StillImage"/>
    <dc:date>2025-11-27T14:34:10.874950</dc:date>
    <dc:format>image/svg+xml</dc:format>
    <dc:creator>
     <cc:Agent>
      <dc:title>Matplotlib v3.10.7, https://matplotlib.org/</dc:title>
     </cc:Agent>
    </dc:creator>
   </cc:Work>
  </rdf:RDF>
 </metadata>
 <defs>
  <style type="text/css">*{stroke-linejoin: round; stroke-linecap: butt}</style>
 </defs>
 <g id="figure_1">
  <g id="patch_1">
   <path d="M 0 310.86825 
L 406.940313 310.86825 
L 406.940313 0 
L 0 0 
z
" style="fill: #ffffff"/>
  </g>
  <g id="axes_1">
   <g id="patch_2">
    <path d="M 42.620313 273.312 
L 399.740313 273.312 
L 399.740313 7.2 
L 42.620313 7.2 
z
" style="fill: #ffffff"/>
   </g>
   <g id="FillBetweenPolyCollection_1">
    <path d="M 82.645742 201.847507 
L 81.439558 201.847507 
L 81.443559 201.322218 
L 81.458174 200.796929 
L 81.481773 200.27164 
L 81.511917 199.746351 
L 81.545472 199.221063 
L 81.578741 198.695774 
L 81.607627 198.170485 
L 81.62778 197.645196 
L 81.63474 197.119907 
L 81.624071 196.594618 
L 81.591471 196.06933 
L 81.532889 195.544041 
L 81.444642 195.018752 
L 81.323543 194.493463 
L 81.167033 193.968174 
L 80.973323 193.442886 
L 80.741511 192.917597 
L 80.471664 192.392308 
L 80.164841 191.867019 
L 79.823045 191.34173 
L 79.44908 190.816442 
L 79.046341 190.291153 
L 78.618532 189.765864 
L 78.169367 189.240575 
L 77.702278 188.715286 
L 77.220177 188.189997 
L 76.725314 187.664709 
L 76.219248 187.13942 
L 75.702929 186.614131 
L 75.176893 186.088842 
L 74.641495 185.563553 
L 74.097163 185.038265 
L 73.544585 184.512976 
L 72.984782 183.987687 
L 72.419035 183.462398 
L 71.848658 182.937109 
L 71.27464 182.411821 
L 70.697235 181.886532 
L 70.115578 181.361243 
L 69.527443 180.835954 
L 68.929236 180.310665 
L 68.316293 179.785377 
L 67.683499 179.260088 
L 67.026178 178.734799 
L 66.341164 178.20951 
L 65.627871 177.684221 
L 64.889202 177.158932 
L 64.13212 176.633644 
L 63.367736 176.108355 
L 62.610871 175.583066 
L 61.879107 175.057777 
L 61.191444 174.532488 
L 60.566748 174.0072 
L 60.022201 173.481911 
L 59.57197 172.956622 
L 59.226272 172.431333 
L 58.990915 171.906044 
L 58.867332 171.380756 
L 58.85304 170.855467 
L 58.94237 170.330178 
L 59.127322 169.804889 
L 59.398379 169.2796 
L 59.745181 168.754311 
L 60.156999 168.229023 
L 60.623025 167.703734 
L 61.132549 167.178445 
L 61.675095 166.653156 
L 62.240622 166.127867 
L 62.819823 165.602579 
L 63.404545 165.07729 
L 63.98828 164.552001 
L 64.566625 164.026712 
L 65.137636 163.501423 
L 65.701945 162.976135 
L 66.262577 162.450846 
L 66.824467 161.925557 
L 67.393682 161.400268 
L 67.976473 160.874979 
L 68.578261 160.349691 
L 69.202728 159.824402 
L 69.851131 159.299113 
L 70.521939 158.773824 
L 71.210864 158.248535 
L 71.911236 157.723246 
L 72.614695 157.197958 
L 73.312049 156.672669 
L 73.994207 156.14738 
L 74.653011 155.622091 
L 75.281904 155.096802 
L 75.876317 154.571514 
L 76.433789 154.046225 
L 76.953817 153.520936 
L 77.437499 152.995647 
L 77.887044 152.470358 
L 78.305251 151.94507 
L 78.695016 151.419781 
L 79.058933 150.894492 
L 79.39904 150.369203 
L 79.716693 149.843914 
L 84.368608 149.843914 
L 84.368608 149.843914 
L 84.68626 150.369203 
L 85.026367 150.894492 
L 85.390285 151.419781 
L 85.780049 151.94507 
L 86.198257 152.470358 
L 86.647802 152.995647 
L 87.131483 153.520936 
L 87.651511 154.046225 
L 88.208984 154.571514 
L 88.803396 155.096802 
L 89.432289 155.622091 
L 90.091094 156.14738 
L 90.773251 156.672669 
L 91.470606 157.197958 
L 92.174064 157.723246 
L 92.874437 158.248535 
L 93.563361 158.773824 
L 94.23417 159.299113 
L 94.882572 159.824402 
L 95.507039 160.349691 
L 96.108828 160.874979 
L 96.691618 161.400268 
L 97.260833 161.925557 
L 97.822723 162.450846 
L 98.383356 162.976135 
L 98.947664 163.501423 
L 99.518676 164.026712 
L 100.097021 164.552001 
L 100.680755 165.07729 
L 101.265478 165.602579 
L 101.844678 166.127867 
L 102.410205 166.653156 
L 102.952751 167.178445 
L 103.462275 167.703734 
L 103.928302 168.229023 
L 104.340119 168.754311 
L 104.686921 169.2796 
L 104.957978 169.804889 
L 105.14293 170.330178 
L 105.232261 170.855467 
L 105.217969 171.380756 
L 105.094386 171.906044 
L 104.859028 172.431333 
L 104.51333 172.956622 
L 104.0631 173.481911 
L 103.518552 174.0072 
L 102.893856 174.532488 
L 102.206193 175.057777 
L 101.474429 175.583066 
L 100.717564 176.108355 
L 99.95318 176.633644 
L 99.196098 177.158932 
L 98.45743 177.684221 
L 97.744136 178.20951 
L 97.059122 178.734799 
L 96.401802 179.260088 
L 95.769007 179.785377 
L 95.156064 180.310665 
L 94.557857 180.835954 
L 93.969722 181.361243 
L 93.388065 181.886532 
L 92.810661 182.411821 
L 92.236643 182.937109 
L 91.666265 183.462398 
L 91.100518 183.987687 
L 90.540715 184.512976 
L 89.988137 185.038265 
L 89.443806 185.563553 
L 88.908408 186.088842 
L 88.382371 186.614131 
L 87.866053 187.13942 
L 87.359986 187.664709 
L 86.865123 188.189997 
L 86.383022 188.715286 
L 85.915933 189.240575 
L 85.466768 189.765864 
L 85.038959 190.291153 
L 84.63622 190.816442 
L 84.262255 191.34173 
L 83.920459 191.867019 
L 83.613636 192.392308 
L 83.343789 192.917597 
L 83.111977 193.442886 
L 82.918268 193.968174 
L 82.761758 194.493463 
L 82.640658 195.018752 
L 82.552411 195.544041 
L 82.493829 196.06933 
L 82.461229 196.594618 
L 82.45056 197.119907 
L 82.457521 197.645196 
L 82.477673 198.170485 
L 82.506559 198.695774 
L 82.539829 199.221063 
L 82.573383 199.746351 
L 82.603528 200.27164 
L 82.627126 200.796929 
L 82.641741 201.322218 
L 82.645742 201.847507 
z
" clip-path="url(#p4dd4fe4a59)" style="fill: #1f77b4; fill-opacity: 0.3"/>
   </g>
   <g id="FillBetweenPolyCollection_2">
    <path d="M 181.618118 206.744164 
L 167.984065 206.744164 
L 167.368725 205.882358 
L 166.743581 205.020552 
L 166.112506 204.158747 
L 165.479305 203.296941 
L 164.847694 202.435135 
L 164.221279 201.573329 
L 163.603552 200.711524 
L 162.997886 199.849718 
L 162.407526 198.987912 
L 161.835567 198.126106 
L 161.284921 197.264301 
L 160.758271 196.402495 
L 160.258008 195.540689 
L 159.786161 194.678884 
L 159.344334 193.817078 
L 158.933638 192.955272 
L 158.554646 192.093466 
L 158.207366 191.231661 
L 157.891238 190.369855 
L 157.605158 189.508049 
L 157.347527 188.646243 
L 157.116314 187.784438 
L 156.909143 186.922632 
L 156.723371 186.060826 
L 156.556168 185.199021 
L 156.404591 184.337215 
L 156.265637 183.475409 
L 156.136275 182.613603 
L 156.013476 181.751798 
L 155.89422 180.889992 
L 155.775505 180.028186 
L 155.654368 179.16638 
L 155.52791 178.304575 
L 155.393351 177.442769 
L 155.248111 176.580963 
L 155.089916 175.719157 
L 154.916929 174.857352 
L 154.727891 173.995546 
L 154.522266 173.13374 
L 154.300374 172.271935 
L 154.063486 171.410129 
L 153.813885 170.548323 
L 153.55486 169.686517 
L 153.290648 168.824712 
L 153.026312 167.962906 
L 152.767557 167.1011 
L 152.520516 166.239294 
L 152.291496 165.377489 
L 152.086728 164.515683 
L 151.912122 163.653877 
L 151.773051 162.792072 
L 151.674182 161.930266 
L 151.619349 161.06846 
L 151.611481 160.206654 
L 151.652584 159.344849 
L 151.743752 158.483043 
L 151.885225 157.621237 
L 152.076458 156.759431 
L 152.316206 155.897626 
L 152.602615 155.03582 
L 152.933311 154.174014 
L 153.30549 153.312209 
L 153.716006 152.450403 
L 154.161463 151.588597 
L 154.638306 150.726791 
L 155.142922 149.864986 
L 155.671741 149.00318 
L 156.221334 148.141374 
L 156.78851 147.279568 
L 157.370397 146.417763 
L 157.964496 145.555957 
L 158.568711 144.694151 
L 159.181342 143.832345 
L 159.801042 142.97054 
L 160.42674 142.108734 
L 161.057535 141.246928 
L 161.692572 140.385123 
L 162.330915 139.523317 
L 162.971423 138.661511 
L 163.612655 137.799705 
L 164.252794 136.9379 
L 164.889627 136.076094 
L 165.520555 135.214288 
L 166.142652 134.352482 
L 166.752761 133.490677 
L 167.347618 132.628871 
L 167.923988 131.767065 
L 168.478812 130.90526 
L 169.009348 130.043454 
L 169.513277 129.181648 
L 169.988803 128.319842 
L 170.434701 127.458037 
L 170.850339 126.596231 
L 171.235662 125.734425 
L 171.591145 124.872619 
L 171.917721 124.010814 
L 172.216692 123.149008 
L 172.489631 122.287202 
L 172.738283 121.425397 
L 176.8639 121.425397 
L 176.8639 121.425397 
L 177.112552 122.287202 
L 177.385491 123.149008 
L 177.684462 124.010814 
L 178.011038 124.872619 
L 178.366521 125.734425 
L 178.751845 126.596231 
L 179.167483 127.458037 
L 179.613381 128.319842 
L 180.088907 129.181648 
L 180.592836 130.043454 
L 181.123371 130.90526 
L 181.678196 131.767065 
L 182.254565 132.628871 
L 182.849422 133.490677 
L 183.459532 134.352482 
L 184.081629 135.214288 
L 184.712557 136.076094 
L 185.349389 136.9379 
L 185.989529 137.799705 
L 186.63076 138.661511 
L 187.271269 139.523317 
L 187.909612 140.385123 
L 188.544649 141.246928 
L 189.175444 142.108734 
L 189.801142 142.97054 
L 190.420842 143.832345 
L 191.033473 144.694151 
L 191.637687 145.555957 
L 192.231786 146.417763 
L 192.813673 147.279568 
L 193.38085 148.141374 
L 193.930443 149.00318 
L 194.459262 149.864986 
L 194.963878 150.726791 
L 195.440721 151.588597 
L 195.886178 152.450403 
L 196.296694 153.312209 
L 196.668872 154.174014 
L 196.999568 155.03582 
L 197.285977 155.897626 
L 197.525726 156.759431 
L 197.716959 157.621237 
L 197.858432 158.483043 
L 197.9496 159.344849 
L 197.990702 160.206654 
L 197.982835 161.06846 
L 197.928001 161.930266 
L 197.829132 162.792072 
L 197.690062 163.653877 
L 197.515455 164.515683 
L 197.310687 165.377489 
L 197.081668 166.239294 
L 196.834626 167.1011 
L 196.575872 167.962906 
L 196.311535 168.824712 
L 196.047324 169.686517 
L 195.788299 170.548323 
L 195.538697 171.410129 
L 195.301809 172.271935 
L 195.079917 173.13374 
L 194.874293 173.995546 
L 194.685254 174.857352 
L 194.512267 175.719157 
L 194.354073 176.580963 
L 194.208833 177.442769 
L 194.074274 178.304575 
L 193.947815 179.16638 
L 193.826678 180.028186 
L 193.707964 180.889992 
L 193.588707 181.751798 
L 193.465908 182.613603 
L 193.336547 183.475409 
L 193.197592 184.337215 
L 193.046016 185.199021 
L 192.878813 186.060826 
L 192.69304 186.922632 
L 192.485869 187.784438 
L 192.254657 188.646243 
L 191.997025 189.508049 
L 191.710946 190.369855 
L 191.394818 191.231661 
L 191.047538 192.093466 
L 190.668546 192.955272 
L 190.25785 193.817078 
L 189.816022 194.678884 
L 189.344176 195.540689 
L 188.843912 196.402495 
L 188.317262 197.264301 
L 187.766617 198.126106 
L 187.194657 198.987912 
L 186.604297 199.849718 
L 185.998631 200.711524 
L 185.380904 201.573329 
L 184.754489 202.435135 
L 184.122878 203.296941 
L 183.489678 204.158747 
L 182.858602 205.020552 
L 182.233459 205.882358 
L 181.618118 206.744164 
z
" clip-path="url(#p4dd4fe4a59)" style="fill: #1f77b4; fill-opacity: 0.3"/>
   </g>
   <g id="FillBetweenPolyCollection_3">
    <path d="M 270.544167 241.765461 
L 264.5749 241.765461 
L 264.227228 240.414039 
L 263.861904 239.062617 
L 263.481425 237.711196 
L 263.088734 236.359774 
L 262.687122 235.008352 
L 262.280115 233.65693 
L 261.871305 232.305508 
L 261.464155 230.954086 
L 261.061785 229.602664 
L 260.666733 228.251242 
L 260.280732 226.89982 
L 259.904499 225.548398 
L 259.537571 224.196976 
L 259.178199 222.845554 
L 258.823323 221.494132 
L 258.468638 220.142711 
L 258.108761 218.791289 
L 257.7375 217.439867 
L 257.348214 216.088445 
L 256.934253 214.737023 
L 256.489442 213.385601 
L 256.008591 212.034179 
L 255.48798 210.682757 
L 254.925773 209.331335 
L 254.322349 207.979913 
L 253.680484 206.628491 
L 253.005377 205.277069 
L 252.304502 203.925648 
L 251.587299 202.574226 
L 250.864693 201.222804 
L 250.148509 199.871382 
L 249.450798 198.51996 
L 248.783137 197.168538 
L 248.155963 195.817116 
L 247.577986 194.465694 
L 247.055732 193.114272 
L 246.593254 191.76285 
L 246.192028 190.411428 
L 245.851031 189.060006 
L 245.567006 187.708585 
L 245.334858 186.357163 
L 245.148163 185.005741 
L 244.999731 183.654319 
L 244.882169 182.302897 
L 244.788403 180.951475 
L 244.712123 179.600053 
L 244.64811 178.248631 
L 244.59244 176.897209 
L 244.542562 175.545787 
L 244.497262 174.194365 
L 244.456535 172.842943 
L 244.421387 171.491521 
L 244.393612 170.1401 
L 244.37556 168.788678 
L 244.369923 167.437256 
L 244.379566 166.085834 
L 244.407392 164.734412 
L 244.45626 163.38299 
L 244.528929 162.031568 
L 244.628026 160.680146 
L 244.756026 159.328724 
L 244.915208 157.977302 
L 245.107607 156.62588 
L 245.334927 155.274458 
L 245.598447 153.923037 
L 245.8989 152.571615 
L 246.236368 151.220193 
L 246.610184 149.868771 
L 247.018882 148.517349 
L 247.460196 147.165927 
L 247.93112 145.814505 
L 248.428031 144.463083 
L 248.946873 143.111661 
L 249.483379 141.760239 
L 250.033317 140.408817 
L 250.592735 139.057395 
L 251.158178 137.705974 
L 251.726857 136.354552 
L 252.296751 135.00313 
L 252.86663 133.651708 
L 253.43601 132.300286 
L 254.005026 130.948864 
L 254.574258 129.597442 
L 255.144522 128.24602 
L 255.716646 126.894598 
L 256.291255 125.543176 
L 256.868599 124.191754 
L 257.448413 122.840332 
L 258.029849 121.488911 
L 258.611454 120.137489 
L 259.191217 118.786067 
L 259.766654 117.434645 
L 260.334929 116.083223 
L 260.893 114.731801 
L 261.437762 113.380379 
L 261.966185 112.028957 
L 262.475436 110.677535 
L 262.962973 109.326113 
L 263.426617 107.974691 
L 271.69245 107.974691 
L 271.69245 107.974691 
L 272.156093 109.326113 
L 272.643631 110.677535 
L 273.152882 112.028957 
L 273.681305 113.380379 
L 274.226066 114.731801 
L 274.784138 116.083223 
L 275.352413 117.434645 
L 275.92785 118.786067 
L 276.507613 120.137489 
L 277.089218 121.488911 
L 277.670653 122.840332 
L 278.250468 124.191754 
L 278.827812 125.543176 
L 279.402421 126.894598 
L 279.974544 128.24602 
L 280.544808 129.597442 
L 281.114041 130.948864 
L 281.683056 132.300286 
L 282.252436 133.651708 
L 282.822316 135.00313 
L 283.39221 136.354552 
L 283.960889 137.705974 
L 284.526332 139.057395 
L 285.085749 140.408817 
L 285.635687 141.760239 
L 286.172193 143.111661 
L 286.691036 144.463083 
L 287.187947 145.814505 
L 287.658871 147.165927 
L 288.100185 148.517349 
L 288.508883 149.868771 
L 288.882699 151.220193 
L 289.220166 152.571615 
L 289.52062 153.923037 
L 289.78414 155.274458 
L 290.01146 156.62588 
L 290.203858 157.977302 
L 290.363041 159.328724 
L 290.49104 160.680146 
L 290.590138 162.031568 
L 290.662806 163.38299 
L 290.711674 164.734412 
L 290.739501 166.085834 
L 290.749144 167.437256 
L 290.743507 168.788678 
L 290.725454 170.1401 
L 290.697679 171.491521 
L 290.662532 172.842943 
L 290.621804 174.194365 
L 290.576505 175.545787 
L 290.526627 176.897209 
L 290.470957 178.248631 
L 290.406944 179.600053 
L 290.330664 180.951475 
L 290.236898 182.302897 
L 290.119335 183.654319 
L 289.970903 185.005741 
L 289.784209 186.357163 
L 289.55206 187.708585 
L 289.268035 189.060006 
L 288.927039 190.411428 
L 288.525812 191.76285 
L 288.063335 193.114272 
L 287.541081 194.465694 
L 286.963104 195.817116 
L 286.33593 197.168538 
L 285.668269 198.51996 
L 284.970557 199.871382 
L 284.254374 201.222804 
L 283.531768 202.574226 
L 282.814564 203.925648 
L 282.11369 205.277069 
L 281.438582 206.628491 
L 280.796717 207.979913 
L 280.193294 209.331335 
L 279.631087 210.682757 
L 279.110475 212.034179 
L 278.629625 213.385601 
L 278.184814 214.737023 
L 277.770852 216.088445 
L 277.381566 217.439867 
L 277.010305 218.791289 
L 276.650429 220.142711 
L 276.295744 221.494132 
L 275.940868 222.845554 
L 275.581496 224.196976 
L 275.214568 225.548398 
L 274.838335 226.89982 
L 274.452334 228.251242 
L 274.057282 229.602664 
L 273.654912 230.954086 
L 273.247762 232.305508 
L 272.838951 233.65693 
L 272.431944 235.008352 
L 272.030333 236.359774 
L 271.637641 237.711196 
L 271.257163 239.062617 
L 270.891838 240.414039 
L 270.544167 241.765461 
z
" clip-path="url(#p4dd4fe4a59)" style="fill: #1f77b4; fill-opacity: 0.3"/>
   </g>
   <g id="FillBetweenPolyCollection_4">
    <path d="M 363.172168 261.216 
L 357.463781 261.216 
L 357.151152 258.772364 
L 356.827041 256.328727 
L 356.489917 253.885091 
L 356.137384 251.441455 
L 355.766453 248.997818 
L 355.373934 246.554182 
L 354.956905 244.110545 
L 354.513219 241.666909 
L 354.041968 239.223273 
L 353.543872 236.779636 
L 353.021509 234.336 
L 352.47938 231.892364 
L 351.923765 229.448727 
L 351.362376 227.005091 
L 350.803838 224.561455 
L 350.257026 222.117818 
L 349.730321 219.674182 
L 349.23086 217.230545 
L 348.763843 214.786909 
L 348.331968 212.343273 
L 347.935059 209.899636 
L 347.569917 207.456 
L 347.230426 205.012364 
L 346.907888 202.568727 
L 346.591585 200.125091 
L 346.269507 197.681455 
L 345.929206 195.237818 
L 345.558703 192.794182 
L 345.147411 190.350545 
L 344.687004 187.906909 
L 344.172204 185.463273 
L 343.60143 183.019636 
L 342.97729 180.576 
L 342.306862 178.132364 
L 341.601754 175.688727 
L 340.877887 173.245091 
L 340.155018 170.801455 
L 339.455962 168.357818 
L 338.805567 165.914182 
L 338.229456 163.470545 
L 337.752632 161.026909 
L 337.398013 158.583273 
L 337.185028 156.139636 
L 337.128364 153.696 
L 337.236985 151.252364 
L 337.513487 148.808727 
L 337.953868 146.365091 
L 338.54771 143.921455 
L 339.278771 141.477818 
L 340.125937 139.034182 
L 341.064453 136.590545 
L 342.067343 134.146909 
L 343.106903 131.703273 
L 344.156177 129.259636 
L 345.190304 126.816 
L 346.187653 124.372364 
L 347.130699 121.928727 
L 348.006582 119.485091 
L 348.807355 117.041455 
L 349.529916 114.597818 
L 350.175667 112.154182 
L 350.749937 109.710545 
L 351.261225 107.266909 
L 351.720335 104.823273 
L 352.139439 102.379636 
L 352.531147 99.936 
L 352.907626 97.492364 
L 353.279811 95.048727 
L 353.656748 92.605091 
L 354.045111 90.161455 
L 354.448897 87.717818 
L 354.869334 85.274182 
L 355.304983 82.830545 
L 355.752034 80.386909 
L 356.204759 77.943273 
L 356.65608 75.499636 
L 357.098202 73.056 
L 357.523249 70.612364 
L 357.923851 68.168727 
L 358.293626 65.725091 
L 358.627541 63.281455 
L 358.922111 60.837818 
L 359.175469 58.394182 
L 359.387292 55.950545 
L 359.558646 53.506909 
L 359.691756 51.063273 
L 359.789762 48.619636 
L 359.856473 46.176 
L 359.896142 43.732364 
L 359.913282 41.288727 
L 359.912511 38.845091 
L 359.898424 36.401455 
L 359.875481 33.957818 
L 359.847907 31.514182 
L 359.819576 29.070545 
L 359.79391 26.626909 
L 359.773765 24.183273 
L 359.761342 21.739636 
L 359.758116 19.296 
L 360.877834 19.296 
L 360.877834 19.296 
L 360.874608 21.739636 
L 360.862185 24.183273 
L 360.84204 26.626909 
L 360.816373 29.070545 
L 360.788043 31.514182 
L 360.760468 33.957818 
L 360.737526 36.401455 
L 360.723439 38.845091 
L 360.722667 41.288727 
L 360.739807 43.732364 
L 360.779477 46.176 
L 360.846187 48.619636 
L 360.944194 51.063273 
L 361.077304 53.506909 
L 361.248657 55.950545 
L 361.460481 58.394182 
L 361.713838 60.837818 
L 362.008409 63.281455 
L 362.342324 65.725091 
L 362.712099 68.168727 
L 363.1127 70.612364 
L 363.537748 73.056 
L 363.97987 75.499636 
L 364.431191 77.943273 
L 364.883916 80.386909 
L 365.330967 82.830545 
L 365.766616 85.274182 
L 366.187053 87.717818 
L 366.590839 90.161455 
L 366.979201 92.605091 
L 367.356139 95.048727 
L 367.728323 97.492364 
L 368.104803 99.936 
L 368.496511 102.379636 
L 368.915614 104.823273 
L 369.374724 107.266909 
L 369.886013 109.710545 
L 370.460282 112.154182 
L 371.106034 114.597818 
L 371.828595 117.041455 
L 372.629368 119.485091 
L 373.505251 121.928727 
L 374.448297 124.372364 
L 375.445646 126.816 
L 376.479773 129.259636 
L 377.529047 131.703273 
L 378.568607 134.146909 
L 379.571496 136.590545 
L 380.510013 139.034182 
L 381.357179 141.477818 
L 382.08824 143.921455 
L 382.682082 146.365091 
L 383.122463 148.808727 
L 383.398965 151.252364 
L 383.507585 153.696 
L 383.450922 156.139636 
L 383.237936 158.583273 
L 382.883318 161.026909 
L 382.406493 163.470545 
L 381.830383 165.914182 
L 381.179987 168.357818 
L 380.480932 170.801455 
L 379.758062 173.245091 
L 379.034196 175.688727 
L 378.329087 178.132364 
L 377.65866 180.576 
L 377.03452 183.019636 
L 376.463746 185.463273 
L 375.948945 187.906909 
L 375.488539 190.350545 
L 375.077246 192.794182 
L 374.706744 195.237818 
L 374.366443 197.681455 
L 374.044365 200.125091 
L 373.728062 202.568727 
L 373.405524 205.012364 
L 373.066032 207.456 
L 372.700891 209.899636 
L 372.303981 212.343273 
L 371.872106 214.786909 
L 371.405089 217.230545 
L 370.905629 219.674182 
L 370.378924 222.117818 
L 369.832112 224.561455 
L 369.273574 227.005091 
L 368.712185 229.448727 
L 368.15657 231.892364 
L 367.614441 234.336 
L 367.092078 236.779636 
L 366.593981 239.223273 
L 366.122731 241.666909 
L 365.679044 244.110545 
L 365.262016 246.554182 
L 364.869496 248.997818 
L 364.498566 251.441455 
L 364.146033 253.885091 
L 363.808909 256.328727 
L 363.484798 258.772364 
L 363.172168 261.216 
z
" clip-path="url(#p4dd4fe4a59)" style="fill: #1f77b4; fill-opacity: 0.3"/>
   </g>
   <g id="matplotlib.axis_1">
    <g id="xtick_1">
     <g id="line2d_1">
      <defs>
       <path id="m9a50f42aae" d="M 0 0 
L 0 3.5 
" style="stroke: #000000; stroke-width: 0.8"/>
      </defs>
      <g>
       <use xlink:href="#m9a50f42aae" x="82.04265" y="273.312" style="stroke: #000000; stroke-width: 0.8"/>
      </g>
     </g>
     <g id="text_1">
      <!-- 1.0 -->
      <g transform="translate(74.091088 287.910437) scale(0.1 -0.1)">
       <defs>
        <path id="DejaVuSans-31" d="M 794 531 
L 1825 531 
L 1825 4091 
L 703 3866 
L 703 4441 
L 1819 4666 
L 2450 4666 
L 2450 531 
L 3481 531 
L 3481 0 
L 794 0 
L 794 531 
z
" transform="scale(0.015625)"/>
        <path id="DejaVuSans-2e" d="M 684 794 
L 1344 794 
L 1344 0 
L 684 0 
L 684 794 
z
" transform="scale(0.015625)"/>
        <path id="DejaVuSans-30" d="M 2034 4250 
Q 1547 4250 1301 3770 
Q 1056 3291 1056 2328 
Q 1056 1369 1301 889 
Q 1547 409 2034 409 
Q 2525 409 2770 889 
Q 3016 1369 3016 2328 
Q 3016 3291 2770 3770 
Q 2525 4250 2034 4250 
z
M 2034 4750 
Q 2819 4750 3233 4129 
Q 3647 3509 3647 2328 
Q 3647 1150 3233 529 
Q 2819 -91 2034 -91 
Q 1250 -91 836 529 
Q 422 1150 422 2328 
Q 422 3509 836 4129 
Q 1250 4750 2034 4750 
z
" transform="scale(0.015625)"/>
       </defs>
       <use xlink:href="#DejaVuSans-31"/>
       <use xlink:href="#DejaVuSans-2e" transform="translate(63.623047 0)"/>
       <use xlink:href="#DejaVuSans-30" transform="translate(95.410156 0)"/>
      </g>
     </g>
    </g>
    <g id="xtick_2">
     <g id="line2d_2">
      <g>
       <use xlink:href="#m9a50f42aae" x="128.421871" y="273.312" style="stroke: #000000; stroke-width: 0.8"/>
      </g>
     </g>
     <g id="text_2">
      <!-- 1.5 -->
      <g transform="translate(120.470308 287.910437) scale(0.1 -0.1)">
       <defs>
        <path id="DejaVuSans-35" d="M 691 4666 
L 3169 4666 
L 3169 4134 
L 1269 4134 
L 1269 2991 
Q 1406 3038 1543 3061 
Q 1681 3084 1819 3084 
Q 2600 3084 3056 2656 
Q 3513 2228 3513 1497 
Q 3513 744 3044 326 
Q 2575 -91 1722 -91 
Q 1428 -91 1123 -41 
Q 819 9 494 109 
L 494 744 
Q 775 591 1075 516 
Q 1375 441 1709 441 
Q 2250 441 2565 725 
Q 2881 1009 2881 1497 
Q 2881 1984 2565 2268 
Q 2250 2553 1709 2553 
Q 1456 2553 1204 2497 
Q 953 2441 691 2322 
L 691 4666 
z
" transform="scale(0.015625)"/>
       </defs>
       <use xlink:href="#DejaVuSans-31"/>
       <use xlink:href="#DejaVuSans-2e" transform="translate(63.623047 0)"/>
       <use xlink:href="#DejaVuSans-35" transform="translate(95.410156 0)"/>
      </g>
     </g>
    </g>
    <g id="xtick_3">
     <g id="line2d_3">
      <g>
       <use xlink:href="#m9a50f42aae" x="174.801092" y="273.312" style="stroke: #000000; stroke-width: 0.8"/>
      </g>
     </g>
     <g id="text_3">
      <!-- 2.0 -->
      <g transform="translate(166.849529 287.910437) scale(0.1 -0.1)">
       <defs>
        <path id="DejaVuSans-32" d="M 1228 531 
L 3431 531 
L 3431 0 
L 469 0 
L 469 531 
Q 828 903 1448 1529 
Q 2069 2156 2228 2338 
Q 2531 2678 2651 2914 
Q 2772 3150 2772 3378 
Q 2772 3750 2511 3984 
Q 2250 4219 1831 4219 
Q 1534 4219 1204 4116 
Q 875 4013 500 3803 
L 500 4441 
Q 881 4594 1212 4672 
Q 1544 4750 1819 4750 
Q 2544 4750 2975 4387 
Q 3406 4025 3406 3419 
Q 3406 3131 3298 2873 
Q 3191 2616 2906 2266 
Q 2828 2175 2409 1742 
Q 1991 1309 1228 531 
z
" transform="scale(0.015625)"/>
       </defs>
       <use xlink:href="#DejaVuSans-32"/>
       <use xlink:href="#DejaVuSans-2e" transform="translate(63.623047 0)"/>
       <use xlink:href="#DejaVuSans-30" transform="translate(95.410156 0)"/>
      </g>
     </g>
    </g>
    <g id="xtick_4">
     <g id="line2d_4">
      <g>
       <use xlink:href="#m9a50f42aae" x="221.180313" y="273.312" style="stroke: #000000; stroke-width: 0.8"/>
      </g>
     </g>
     <g id="text_4">
      <!-- 2.5 -->
      <g transform="translate(213.22875 287.910437) scale(0.1 -0.1)">
       <use xlink:href="#DejaVuSans-32"/>
       <use xlink:href="#DejaVuSans-2e" transform="translate(63.623047 0)"/>
       <use xlink:href="#DejaVuSans-35" transform="translate(95.410156 0)"/>
      </g>
     </g>
    </g>
    <g id="xtick_5">
     <g id="line2d_5">
      <g>
       <use xlink:href="#m9a50f42aae" x="267.559533" y="273.312" style="stroke: #000000; stroke-width: 0.8"/>
      </g>
     </g>
     <g id="text_5">
      <!-- 3.0 -->
      <g transform="translate(259.607971 287.910437) scale(0.1 -0.1)">
       <defs>
        <path id="DejaVuSans-33" d="M 2597 2516 
Q 3050 2419 3304 2112 
Q 3559 1806 3559 1356 
Q 3559 666 3084 287 
Q 2609 -91 1734 -91 
Q 1441 -91 1130 -33 
Q 819 25 488 141 
L 488 750 
Q 750 597 1062 519 
Q 1375 441 1716 441 
Q 2309 441 2620 675 
Q 2931 909 2931 1356 
Q 2931 1769 2642 2001 
Q 2353 2234 1838 2234 
L 1294 2234 
L 1294 2753 
L 1863 2753 
Q 2328 2753 2575 2939 
Q 2822 3125 2822 3475 
Q 2822 3834 2567 4026 
Q 2313 4219 1838 4219 
Q 1578 4219 1281 4162 
Q 984 4106 628 3988 
L 628 4550 
Q 988 4650 1302 4700 
Q 1616 4750 1894 4750 
Q 2613 4750 3031 4423 
Q 3450 4097 3450 3541 
Q 3450 3153 3228 2886 
Q 3006 2619 2597 2516 
z
" transform="scale(0.015625)"/>
       </defs>
       <use xlink:href="#DejaVuSans-33"/>
       <use xlink:href="#DejaVuSans-2e" transform="translate(63.623047 0)"/>
       <use xlink:href="#DejaVuSans-30" transform="translate(95.410156 0)"/>
      </g>
     </g>
    </g>
    <g id="xtick_6">
     <g id="line2d_6">
      <g>
       <use xlink:href="#m9a50f42aae" x="313.938754" y="273.312" style="stroke: #000000; stroke-width: 0.8"/>
      </g>
     </g>
     <g id="text_6">
      <!-- 3.5 -->
      <g transform="translate(305.987192 287.910437) scale(0.1 -0.1)">
       <use xlink:href="#DejaVuSans-33"/>
       <use xlink:href="#DejaVuSans-2e" transform="translate(63.623047 0)"/>
       <use xlink:href="#DejaVuSans-35" transform="translate(95.410156 0)"/>
      </g>
     </g>
    </g>
    <g id="xtick_7">
     <g id="line2d_7">
      <g>
       <use xlink:href="#m9a50f42aae" x="360.317975" y="273.312" style="stroke: #000000; stroke-width: 0.8"/>
      </g>
     </g>
     <g id="text_7">
      <!-- 4.0 -->
      <g transform="translate(352.366412 287.910437) scale(0.1 -0.1)">
       <defs>
        <path id="DejaVuSans-34" d="M 2419 4116 
L 825 1625 
L 2419 1625 
L 2419 4116 
z
M 2253 4666 
L 3047 4666 
L 3047 1625 
L 3713 1625 
L 3713 1100 
L 3047 1100 
L 3047 0 
L 2419 0 
L 2419 1100 
L 313 1100 
L 313 1709 
L 2253 4666 
z
" transform="scale(0.015625)"/>
       </defs>
       <use xlink:href="#DejaVuSans-34"/>
       <use xlink:href="#DejaVuSans-2e" transform="translate(63.623047 0)"/>
       <use xlink:href="#DejaVuSans-30" transform="translate(95.410156 0)"/>
      </g>
     </g>
    </g>
    <g id="text_8">
     <!-- Grups -->
     <g transform="translate(206.302969 301.588562) scale(0.1 -0.1)">
      <defs>
       <path id="DejaVuSans-47" d="M 3809 666 
L 3809 1919 
L 2778 1919 
L 2778 2438 
L 4434 2438 
L 4434 434 
Q 4069 175 3628 42 
Q 3188 -91 2688 -91 
Q 1594 -91 976 548 
Q 359 1188 359 2328 
Q 359 3472 976 4111 
Q 1594 4750 2688 4750 
Q 3144 4750 3555 4637 
Q 3966 4525 4313 4306 
L 4313 3634 
Q 3963 3931 3569 4081 
Q 3175 4231 2741 4231 
Q 1884 4231 1454 3753 
Q 1025 3275 1025 2328 
Q 1025 1384 1454 906 
Q 1884 428 2741 428 
Q 3075 428 3337 486 
Q 3600 544 3809 666 
z
" transform="scale(0.015625)"/>
       <path id="DejaVuSans-72" d="M 2631 2963 
Q 2534 3019 2420 3045 
Q 2306 3072 2169 3072 
Q 1681 3072 1420 2755 
Q 1159 2438 1159 1844 
L 1159 0 
L 581 0 
L 581 3500 
L 1159 3500 
L 1159 2956 
Q 1341 3275 1631 3429 
Q 1922 3584 2338 3584 
Q 2397 3584 2469 3576 
Q 2541 3569 2628 3553 
L 2631 2963 
z
" transform="scale(0.015625)"/>
       <path id="DejaVuSans-75" d="M 544 1381 
L 544 3500 
L 1119 3500 
L 1119 1403 
Q 1119 906 1312 657 
Q 1506 409 1894 409 
Q 2359 409 2629 706 
Q 2900 1003 2900 1516 
L 2900 3500 
L 3475 3500 
L 3475 0 
L 2900 0 
L 2900 538 
Q 2691 219 2414 64 
Q 2138 -91 1772 -91 
Q 1169 -91 856 284 
Q 544 659 544 1381 
z
M 1991 3584 
L 1991 3584 
z
" transform="scale(0.015625)"/>
       <path id="DejaVuSans-70" d="M 1159 525 
L 1159 -1331 
L 581 -1331 
L 581 3500 
L 1159 3500 
L 1159 2969 
Q 1341 3281 1617 3432 
Q 1894 3584 2278 3584 
Q 2916 3584 3314 3078 
Q 3713 2572 3713 1747 
Q 3713 922 3314 415 
Q 2916 -91 2278 -91 
Q 1894 -91 1617 61 
Q 1341 213 1159 525 
z
M 3116 1747 
Q 3116 2381 2855 2742 
Q 2594 3103 2138 3103 
Q 1681 3103 1420 2742 
Q 1159 2381 1159 1747 
Q 1159 1113 1420 752 
Q 1681 391 2138 391 
Q 2594 391 2855 752 
Q 3116 1113 3116 1747 
z
" transform="scale(0.015625)"/>
       <path id="DejaVuSans-73" d="M 2834 3397 
L 2834 2853 
Q 2591 2978 2328 3040 
Q 2066 3103 1784 3103 
Q 1356 3103 1142 2972 
Q 928 2841 928 2578 
Q 928 2378 1081 2264 
Q 1234 2150 1697 2047 
L 1894 2003 
Q 2506 1872 2764 1633 
Q 3022 1394 3022 966 
Q 3022 478 2636 193 
Q 2250 -91 1575 -91 
Q 1294 -91 989 -36 
Q 684 19 347 128 
L 347 722 
Q 666 556 975 473 
Q 1284 391 1588 391 
Q 1994 391 2212 530 
Q 2431 669 2431 922 
Q 2431 1156 2273 1281 
Q 2116 1406 1581 1522 
L 1381 1569 
Q 847 1681 609 1914 
Q 372 2147 372 2553 
Q 372 3047 722 3315 
Q 1072 3584 1716 3584 
Q 2034 3584 2315 3537 
Q 2597 3491 2834 3397 
z
" transform="scale(0.015625)"/>
      </defs>
      <use xlink:href="#DejaVuSans-47"/>
      <use xlink:href="#DejaVuSans-72" transform="translate(77.490234 0)"/>
      <use xlink:href="#DejaVuSans-75" transform="translate(118.603516 0)"/>
      <use xlink:href="#DejaVuSans-70" transform="translate(181.982422 0)"/>
      <use xlink:href="#DejaVuSans-73" transform="translate(245.458984 0)"/>
     </g>
    </g>
   </g>
   <g id="matplotlib.axis_2">
    <g id="ytick_1">
     <g id="line2d_8">
      <defs>
       <path id="m820f88da9e" d="M 0 0 
L -3.5 0 
" style="stroke: #000000; stroke-width: 0.8"/>
      </defs>
      <g>
       <use xlink:href="#m820f88da9e" x="42.620313" y="223.623081" style="stroke: #000000; stroke-width: 0.8"/>
      </g>
     </g>
     <g id="text_9">
      <!-- −5 -->
      <g transform="translate(20.878125 227.422299) scale(0.1 -0.1)">
       <defs>
        <path id="DejaVuSans-2212" d="M 678 2272 
L 4684 2272 
L 4684 1741 
L 678 1741 
L 678 2272 
z
" transform="scale(0.015625)"/>
       </defs>
       <use xlink:href="#DejaVuSans-2212"/>
       <use xlink:href="#DejaVuSans-35" transform="translate(83.789062 0)"/>
      </g>
     </g>
    </g>
    <g id="ytick_2">
     <g id="line2d_9">
      <g>
       <use xlink:href="#m820f88da9e" x="42.620313" y="168.928215" style="stroke: #000000; stroke-width: 0.8"/>
      </g>
     </g>
     <g id="text_10">
      <!-- 0 -->
      <g transform="translate(29.257813 172.727434) scale(0.1 -0.1)">
       <use xlink:href="#DejaVuSans-30"/>
      </g>
     </g>
    </g>
    <g id="ytick_3">
     <g id="line2d_10">
      <g>
       <use xlink:href="#m820f88da9e" x="42.620313" y="114.23335" style="stroke: #000000; stroke-width: 0.8"/>
      </g>
     </g>
     <g id="text_11">
      <!-- 5 -->
      <g transform="translate(29.257813 118.032569) scale(0.1 -0.1)">
       <use xlink:href="#DejaVuSans-35"/>
      </g>
     </g>
    </g>
    <g id="ytick_4">
     <g id="line2d_11">
      <g>
       <use xlink:href="#m820f88da9e" x="42.620313" y="59.538484" style="stroke: #000000; stroke-width: 0.8"/>
      </g>
     </g>
     <g id="text_12">
      <!-- 10 -->
      <g transform="translate(22.895313 63.337703) scale(0.1 -0.1)">
       <use xlink:href="#DejaVuSans-31"/>
       <use xlink:href="#DejaVuSans-30" transform="translate(63.623047 0)"/>
      </g>
     </g>
    </g>
    <g id="text_13">
     <!-- Valors -->
     <g transform="translate(14.798438 155.461469) rotate(-90) scale(0.1 -0.1)">
      <defs>
       <path id="DejaVuSans-56" d="M 1831 0 
L 50 4666 
L 709 4666 
L 2188 738 
L 3669 4666 
L 4325 4666 
L 2547 0 
L 1831 0 
z
" transform="scale(0.015625)"/>
       <path id="DejaVuSans-61" d="M 2194 1759 
Q 1497 1759 1228 1600 
Q 959 1441 959 1056 
Q 959 750 1161 570 
Q 1363 391 1709 391 
Q 2188 391 2477 730 
Q 2766 1069 2766 1631 
L 2766 1759 
L 2194 1759 
z
M 3341 1997 
L 3341 0 
L 2766 0 
L 2766 531 
Q 2569 213 2275 61 
Q 1981 -91 1556 -91 
Q 1019 -91 701 211 
Q 384 513 384 1019 
Q 384 1609 779 1909 
Q 1175 2209 1959 2209 
L 2766 2209 
L 2766 2266 
Q 2766 2663 2505 2880 
Q 2244 3097 1772 3097 
Q 1472 3097 1187 3025 
Q 903 2953 641 2809 
L 641 3341 
Q 956 3463 1253 3523 
Q 1550 3584 1831 3584 
Q 2591 3584 2966 3190 
Q 3341 2797 3341 1997 
z
" transform="scale(0.015625)"/>
       <path id="DejaVuSans-6c" d="M 603 4863 
L 1178 4863 
L 1178 0 
L 603 0 
L 603 4863 
z
" transform="scale(0.015625)"/>
       <path id="DejaVuSans-6f" d="M 1959 3097 
Q 1497 3097 1228 2736 
Q 959 2375 959 1747 
Q 959 1119 1226 758 
Q 1494 397 1959 397 
Q 2419 397 2687 759 
Q 2956 1122 2956 1747 
Q 2956 2369 2687 2733 
Q 2419 3097 1959 3097 
z
M 1959 3584 
Q 2709 3584 3137 3096 
Q 3566 2609 3566 1747 
Q 3566 888 3137 398 
Q 2709 -91 1959 -91 
Q 1206 -91 779 398 
Q 353 888 353 1747 
Q 353 2609 779 3096 
Q 1206 3584 1959 3584 
z
" transform="scale(0.015625)"/>
      </defs>
      <use xlink:href="#DejaVuSans-56"/>
      <use xlink:href="#DejaVuSans-61" transform="translate(60.658203 0)"/>
      <use xlink:href="#DejaVuSans-6c" transform="translate(121.9375 0)"/>
      <use xlink:href="#DejaVuSans-6f" transform="translate(149.720703 0)"/>
      <use xlink:href="#DejaVuSans-72" transform="translate(210.902344 0)"/>
      <use xlink:href="#DejaVuSans-73" transform="translate(252.015625 0)"/>
     </g>
    </g>
   </g>
   <g id="LineCollection_1">
    <path d="M 70.447845 170.773205 
L 93.637455 170.773205 
" clip-path="url(#p4dd4fe4a59)" style="fill: none; stroke: #1f77b4; stroke-width: 1.5"/>
    <path d="M 163.206287 168.242176 
L 186.395897 168.242176 
" clip-path="url(#p4dd4fe4a59)" style="fill: none; stroke: #1f77b4; stroke-width: 1.5"/>
    <path d="M 255.964728 171.333387 
L 279.154338 171.333387 
" clip-path="url(#p4dd4fe4a59)" style="fill: none; stroke: #1f77b4; stroke-width: 1.5"/>
    <path d="M 348.72317 163.209196 
L 371.91278 163.209196 
" clip-path="url(#p4dd4fe4a59)" style="fill: none; stroke: #1f77b4; stroke-width: 1.5"/>
   </g>
   <g id="LineCollection_2">
    <path d="M 70.447845 149.843914 
L 93.637455 149.843914 
" clip-path="url(#p4dd4fe4a59)" style="fill: none; stroke: #1f77b4; stroke-width: 1.5"/>
    <path d="M 163.206287 121.425397 
L 186.395897 121.425397 
" clip-path="url(#p4dd4fe4a59)" style="fill: none; stroke: #1f77b4; stroke-width: 1.5"/>
    <path d="M 255.964728 107.974691 
L 279.154338 107.974691 
" clip-path="url(#p4dd4fe4a59)" style="fill: none; stroke: #1f77b4; stroke-width: 1.5"/>
    <path d="M 348.72317 19.296 
L 371.91278 19.296 
" clip-path="url(#p4dd4fe4a59)" style="fill: none; stroke: #1f77b4; stroke-width: 1.5"/>
   </g>
   <g id="LineCollection_3">
    <path d="M 70.447845 201.847507 
L 93.637455 201.847507 
" clip-path="url(#p4dd4fe4a59)" style="fill: none; stroke: #1f77b4; stroke-width: 1.5"/>
    <path d="M 163.206287 206.744164 
L 186.395897 206.744164 
" clip-path="url(#p4dd4fe4a59)" style="fill: none; stroke: #1f77b4; stroke-width: 1.5"/>
    <path d="M 255.964728 241.765461 
L 279.154338 241.765461 
" clip-path="url(#p4dd4fe4a59)" style="fill: none; stroke: #1f77b4; stroke-width: 1.5"/>
    <path d="M 348.72317 261.216 
L 371.91278 261.216 
" clip-path="url(#p4dd4fe4a59)" style="fill: none; stroke: #1f77b4; stroke-width: 1.5"/>
   </g>
   <g id="LineCollection_4">
    <path d="M 82.04265 201.847507 
L 82.04265 149.843914 
" clip-path="url(#p4dd4fe4a59)" style="fill: none; stroke: #1f77b4; stroke-width: 1.5"/>
    <path d="M 174.801092 206.744164 
L 174.801092 121.425397 
" clip-path="url(#p4dd4fe4a59)" style="fill: none; stroke: #1f77b4; stroke-width: 1.5"/>
    <path d="M 267.559533 241.765461 
L 267.559533 107.974691 
" clip-path="url(#p4dd4fe4a59)" style="fill: none; stroke: #1f77b4; stroke-width: 1.5"/>
    <path d="M 360.317975 261.216 
L 360.317975 19.296 
" clip-path="url(#p4dd4fe4a59)" style="fill: none; stroke: #1f77b4; stroke-width: 1.5"/>
   </g>
   <g id="LineCollection_5">
    <path d="M 70.447845 171.163225 
L 93.637455 171.163225 
" clip-path="url(#p4dd4fe4a59)" style="fill: none; stroke: #1f77b4; stroke-width: 1.5"/>
    <path d="M 163.206287 165.257158 
L 186.395897 165.257158 
" clip-path="url(#p4dd4fe4a59)" style="fill: none; stroke: #1f77b4; stroke-width: 1.5"/>
    <path d="M 255.964728 169.438813 
L 279.154338 169.438813 
" clip-path="url(#p4dd4fe4a59)" style="fill: none; stroke: #1f77b4; stroke-width: 1.5"/>
    <path d="M 348.72317 158.946686 
L 371.91278 158.946686 
" clip-path="url(#p4dd4fe4a59)" style="fill: none; stroke: #1f77b4; stroke-width: 1.5"/>
   </g>
   <g id="patch_3">
    <path d="M 42.620313 273.312 
L 42.620313 7.2 
" style="fill: none; stroke: #000000; stroke-width: 0.8; stroke-linejoin: miter; stroke-linecap: square"/>
   </g>
   <g id="patch_4">
    <path d="M 399.740313 273.312 
L 399.740313 7.2 
" style="fill: none; stroke: #000000; stroke-width: 0.8; stroke-linejoin: miter; stroke-linecap: square"/>
   </g>
   <g id="patch_5">
    <path d="M 42.620313 273.312 
L 399.740313 273.312 
" style="fill: none; stroke: #000000; stroke-width: 0.8; stroke-linejoin: miter; stroke-linecap: square"/>
   </g>
   <g id="patch_6">
    <path d="M 42.620313 7.2 
L 399.740313 7.2 
" style="fill: none; stroke: #000000; stroke-width: 0.8; stroke-linejoin: miter; stroke-linecap: square"/>
   </g>
  </g>
 </g>
 <defs>
  <clipPath id="p4dd4fe4a59">
   <rect x="42.620313" y="7.2" width="357.12" height="266.112"/>
  </clipPath>
 </defs>
</svg>
